<svg width="130" height="131" viewBox="0 0 130 131" fill="none" xmlns="http://www.w3.org/2000/svg">
<path d="M68.4828 55.4805L60.4868 53.1964C60.3269 52.5843 60.0358 52.0142 59.6337 51.5256C59.2317 51.037 58.7283 50.6416 58.1584 50.3667C57.5885 50.0919 56.9657 49.9442 56.333 49.9338C55.7004 49.9234 55.073 50.0506 54.4944 50.3066L45.3816 43.7975C45.4695 42.847 45.2415 41.894 44.7328 41.0862C44.2241 40.2785 43.4631 39.6611 42.5679 39.3298C41.6727 38.9985 40.6931 38.9717 39.7811 39.2536C38.8691 39.5355 38.0756 40.1104 37.5235 40.8891C36.9714 41.6678 36.6916 42.6069 36.7275 43.5608C36.7633 44.5147 37.1128 45.4301 37.7218 46.1652C38.3307 46.9003 39.1652 47.414 40.0958 47.6267C41.0264 47.8394 42.0011 47.7391 42.8689 47.3416L51.9817 53.8507C51.9127 54.7263 52.11 55.6024 52.5476 56.364C52.9852 57.1256 53.6428 57.7372 54.4341 58.1185C55.2254 58.4998 56.1134 58.6331 56.9818 58.5009C57.8502 58.3687 58.6583 57.9771 59.3002 57.3776L67.2962 59.6623C67.4892 60.394 67.8691 61.0629 68.3986 61.6033C68.9282 62.1438 69.5892 62.5373 70.3167 62.7451C71.0443 62.953 71.8134 62.9681 72.5485 62.7889C73.2837 62.6098 73.9596 62.2425 74.51 61.7232L82.5059 64.0079C82.7408 64.9321 83.2739 65.753 84.0225 66.3435C84.7712 66.934 85.6937 67.2612 86.6471 67.2743C87.6006 67.2874 88.5317 66.9858 89.2963 66.4161C90.061 65.8464 90.6164 65.0404 90.8766 64.1231C91.1368 63.2058 91.0872 62.2282 90.7356 61.3419C90.3839 60.4556 89.7498 59.71 88.9315 59.2206C88.1132 58.7311 87.1563 58.5252 86.2091 58.6347C85.2619 58.7442 84.3772 59.1629 83.6921 59.8261L75.6961 57.5419C75.5031 56.8103 75.1232 56.1415 74.5937 55.6011C74.0642 55.0606 73.4033 54.6672 72.6758 54.4593C71.9483 54.2514 71.1793 54.2362 70.4442 54.4153C69.7091 54.5943 69.0332 54.9614 68.4828 55.4805ZM45.4233 54.2559H36.732C36.4466 54.2557 36.164 54.3118 35.9003 54.421C35.6366 54.5301 35.397 54.6901 35.1952 54.8919C34.9934 55.0937 34.8334 55.3333 34.7243 55.597C34.6151 55.8607 34.559 56.1433 34.5592 56.4287V84.6754H32.3864C31.8232 84.6949 31.2895 84.9324 30.8979 85.3377C30.5064 85.7431 30.2876 86.2846 30.2876 86.8482C30.2876 87.4118 30.5064 87.9533 30.8979 88.3587C31.2895 88.764 31.8232 89.0015 32.3864 89.021H97.571C98.1342 89.0015 98.6679 88.764 99.0594 88.3587C99.451 87.9533 99.6698 87.4118 99.6698 86.8482C99.6698 86.2846 99.451 85.7431 99.0594 85.3377C98.6679 84.9324 98.1342 84.6949 97.571 84.6754H93.2253V75.9841C93.2255 75.6987 93.1694 75.4161 93.0603 75.1524C92.9511 74.8887 92.7911 74.6491 92.5893 74.4473C92.3875 74.2455 92.1479 74.0855 91.8842 73.9763C91.6205 73.8672 91.3379 73.8111 91.0525 73.8113H82.3612C82.0758 73.8111 81.7932 73.8672 81.5295 73.9763C81.2658 74.0855 81.0262 74.2455 80.8244 74.4473C80.6226 74.6491 80.4626 74.8887 80.3535 75.1524C80.2443 75.4161 80.1882 75.6987 80.1884 75.9841V84.6754H78.0156V71.6385C78.0158 71.3531 77.9597 71.0704 77.8506 70.8068C77.7414 70.5431 77.5814 70.3035 77.3796 70.1017C77.1778 69.8999 76.9382 69.7398 76.6745 69.6307C76.4108 69.5216 76.1282 69.4655 75.8428 69.4656H67.1515C66.8661 69.4655 66.5835 69.5216 66.3198 69.6307C66.0561 69.7398 65.8165 69.8999 65.6147 70.1017C65.4129 70.3035 65.2529 70.5431 65.1437 70.8068C65.0346 71.0704 64.9785 71.3531 64.9787 71.6385V84.6754H62.8059V67.2928C62.806 67.0074 62.75 66.7248 62.6408 66.4611C62.5317 66.1974 62.3716 65.9578 62.1698 65.756C61.968 65.5542 61.7284 65.3942 61.4648 65.285C61.2011 65.1759 60.9184 65.1198 60.633 65.12H51.9418C51.6564 65.1198 51.3737 65.1759 51.1101 65.285C50.8464 65.3942 50.6068 65.5542 50.405 65.756C50.2032 65.9578 50.0431 66.1974 49.934 66.4611C49.8249 66.7248 49.7688 67.0074 49.7689 67.2928V84.6754H47.5961V56.4287C47.5963 56.1433 47.5402 55.8607 47.4311 55.597C47.3219 55.3333 47.1619 55.0937 46.9601 54.8919C46.7583 54.6901 46.5187 54.5301 46.255 54.421C45.9913 54.3118 45.7087 54.2557 45.4233 54.2559ZM84.5341 78.1569H88.8797V84.6754H84.5341V78.1569ZM69.3243 73.8113H73.67V84.6754H69.3243V73.8113ZM54.1146 69.4656H58.4602V84.6754H54.1146V69.4656ZM43.2505 84.6754H38.9048V58.6015H43.2505V84.6754ZM18.7928 111.07C21.3165 113.803 24.1649 116.218 27.2746 118.26C38.6838 126.198 52.3088 130.33 66.2054 130.066C80.102 129.802 93.5603 125.155 104.66 116.79C115.078 108.617 122.806 97.5071 126.845 84.8964C130.884 72.2857 131.049 58.7535 127.317 46.0485C123.425 33.8432 116.083 23.0259 106.176 14.9033C96.2698 6.78065 84.2234 1.70021 71.4921 0.275692C58.339 -0.930083 45.1265 1.83756 33.563 8.22078C21.9996 14.604 12.6168 24.3093 6.62784 36.0818C0.692215 48.3137 -1.32465 62.0792 0.852493 75.4997C3.02964 88.9203 9.29472 101.342 18.7928 111.07ZM74.1491 20.4171C84.4043 22.6107 93.6053 28.235 100.234 36.3621C106.862 44.4891 110.521 54.6331 110.608 65.12C110.611 74.7532 107.565 84.1403 101.905 91.9357C96.2459 99.731 88.2636 105.535 79.1028 108.514C69.942 111.494 60.073 111.497 50.9104 108.523C41.7478 105.549 33.762 99.75 28.0977 91.958C22.6842 84.5175 19.6469 75.614 19.3844 66.4162C19.122 57.2185 21.6467 48.1563 26.6271 40.4191C31.6076 32.682 38.811 26.6316 47.2919 23.0619C55.7728 19.4923 65.1348 18.5704 74.1491 20.4171ZM106.405 20.6207L98.7271 28.299C90.0781 20.3423 78.893 15.7022 67.1515 15.2001V4.33604C81.773 4.84746 95.7158 10.6317 106.405 20.6207ZM123.105 83.0955L112.832 79.5125C115.291 71.2172 115.568 62.4274 113.635 53.9938C111.703 45.5601 107.626 37.768 101.8 31.3713L109.478 23.6933C116.78 31.5169 121.887 41.1308 124.279 51.5619C126.672 61.9931 126.267 72.8712 123.105 83.0955ZM23.5519 109.619L31.2302 101.941C37.1873 107.419 44.3873 111.366 52.2094 113.442C60.0316 115.517 68.2412 115.659 76.1305 113.855C84.0198 112.052 91.352 108.356 97.495 103.088C103.638 97.8189 108.407 91.1353 111.392 83.6129L121.656 87.1924C118.06 96.4486 112.252 104.683 104.738 111.175C97.2238 117.666 88.2334 122.218 78.5532 124.431C68.873 126.644 58.798 126.451 49.2096 123.869C39.6213 121.287 30.8118 116.394 23.5519 109.619ZM4.13974 65.12C4.15937 49.3682 10.2815 34.2366 21.2205 22.9027C32.1596 11.5688 47.0646 4.9142 62.8059 4.33626V15.2004C53.3006 15.6073 44.1094 18.721 36.3139 24.175C28.5184 29.629 22.4431 37.1964 18.803 45.9865C15.1629 54.7766 14.1095 64.4235 15.7668 73.7921C17.424 83.1606 21.723 91.8608 28.1576 98.8687L20.4793 106.547C9.97248 95.3121 4.13116 80.5022 4.13974 65.12Z" fill="#F79838"/>
</svg>
