<svg width="130" height="130" viewBox="0 0 130 130" fill="none" xmlns="http://www.w3.org/2000/svg">
<path fill-rule="evenodd" clip-rule="evenodd" d="M125.66 117H127.827C128.401 117 128.952 117.228 129.358 117.635C129.765 118.041 129.993 118.592 129.993 119.167V127.833C129.993 128.408 129.765 128.959 129.358 129.365C128.952 129.772 128.401 130 127.827 130H2.17342C1.59885 130 1.04781 129.772 0.641522 129.365C0.235237 128.959 0.00698861 128.408 0.00698861 127.833V119.167C0.00698861 118.592 0.235237 118.041 0.641522 117.635C1.04781 117.228 1.59885 117 2.17342 117H4.33986V110.5C4.33986 109.925 4.56811 109.374 4.97439 108.968C5.38068 108.562 5.93172 108.333 6.50629 108.333H8.67272V101.833C8.67272 101.259 8.90097 100.708 9.30726 100.301C9.71354 99.895 10.2646 99.6667 10.8392 99.6667H13.0056V93.1667C13.0056 92.5921 13.2338 92.041 13.6401 91.6346C14.0464 91.2283 14.5975 91 15.172 91H17.3385V60.6667H15.172C14.5975 60.6667 14.0464 60.4385 13.6401 60.0321C13.2338 59.6258 13.0056 59.0747 13.0056 58.5001V52.0001H10.8392C10.2646 52.0001 9.71354 51.7718 9.30726 51.3655C8.90097 50.9591 8.67272 50.408 8.67272 49.8334V43.3334H2.17342C1.70171 43.3349 1.24238 43.1824 0.865227 42.8991C0.488072 42.6157 0.213696 42.217 0.0837814 41.7635C-0.0461335 41.31 -0.0244882 40.8264 0.145429 40.3863C0.315346 39.9462 0.624249 39.5736 1.02521 39.3251L63.8518 0.325126C64.1971 0.112553 64.5946 0 65 0C65.4054 0 65.8029 0.112553 66.1482 0.325126L128.975 39.3251C129.376 39.5736 129.685 39.9462 129.855 40.3863C130.024 40.8264 130.046 41.31 129.916 41.7635C129.786 42.217 129.512 42.6157 129.135 42.8991C128.758 43.1824 128.298 43.3349 127.827 43.3334H121.327V49.8334C121.327 50.408 121.099 50.9591 120.693 51.3655C120.286 51.7718 119.735 52.0001 119.161 52.0001H116.994V58.5001C116.994 59.0747 116.766 59.6258 116.36 60.0321C115.954 60.4385 115.403 60.6667 114.828 60.6667H112.662V91H114.828C115.403 91 115.954 91.2283 116.36 91.6346C116.766 92.041 116.994 92.5921 116.994 93.1667V99.6667H119.161C119.735 99.6667 120.286 99.895 120.693 100.301C121.099 100.708 121.327 101.259 121.327 101.833V108.333H123.494C124.068 108.333 124.619 108.562 125.026 108.968C125.432 109.374 125.66 109.925 125.66 110.5V117ZM95.3301 56.3334H112.662V52.0001H95.3301V56.3334ZM73.6657 91H75.8322C76.4067 91 76.9578 91.2283 77.3641 91.6346C77.7704 92.041 77.9986 92.5921 77.9986 93.1667V99.6667H90.9972V93.1667C90.9972 92.5921 91.2255 92.041 91.6317 91.6346C92.038 91.2283 92.5891 91 93.1636 91H95.3301V60.6667H93.1636C92.5891 60.6667 92.038 60.4385 91.6317 60.0321C91.2255 59.6258 90.9972 59.0747 90.9972 58.5001V52.0001H77.9986V58.5001C77.9986 59.0747 77.7704 59.6258 77.3641 60.0321C76.9578 60.4385 76.4067 60.6667 75.8322 60.6667H73.6657V91ZM34.6699 91H36.8364C37.4109 91 37.962 91.2283 38.3683 91.6346C38.7745 92.041 39.0028 92.5921 39.0028 93.1667V99.6667H52.0014V93.1667C52.0014 92.5921 52.2296 92.041 52.6359 91.6346C53.0422 91.2283 53.5933 91 54.1678 91H56.3343V60.6667H54.1678C53.5933 60.6667 53.0422 60.4385 52.6359 60.0321C52.2296 59.6258 52.0014 59.0747 52.0014 58.5001V52.0001H39.0028V58.5001C39.0028 59.0747 38.7745 59.6258 38.3683 60.0321C37.962 60.4385 37.4109 60.6667 36.8364 60.6667H34.6699V91ZM17.3385 52.0001V56.3334H34.6699V52.0001H17.3385ZM30.3371 91V60.6667H21.6713V91H30.3371ZM73.6657 99.6667V95.3334H56.3343V99.6667H73.6657ZM60.6671 60.6667V91H69.3329V60.6667H60.6671ZM56.3343 52.0001V56.3334H73.6657V52.0001H56.3343ZM112.662 95.3334H95.3301V99.6667H112.662V95.3334ZM99.6629 60.6667V91H108.329V60.6667H99.6629ZM65 4.72345L9.77761 39.0001H120.222L65 4.72345ZM13.0056 43.3334V47.6667H116.994V43.3334H13.0056ZM34.6699 95.3334H17.3385V99.6667H34.6699V95.3334ZM116.994 108.333V104H13.0056V108.333H116.994ZM121.327 112.667H8.67272V117H121.327V112.667ZM4.33986 125.667H125.66V121.333H4.33986V125.667ZM71.0179 32.8409C69.2366 34.0313 67.1423 34.6667 64.9999 34.6667C62.1281 34.6632 59.3749 33.5207 57.3442 31.4898C55.3135 29.459 54.1712 26.7055 54.1677 23.8333C54.1677 21.6907 54.803 19.5962 55.9933 17.8147C57.1835 16.0331 58.8753 14.6446 60.8546 13.8246C62.8339 13.0047 65.0119 12.7902 67.1131 13.2082C69.2144 13.6262 71.1445 14.6579 72.6594 16.173C74.1743 17.6881 75.206 19.6184 75.6239 21.7199C76.0419 23.8213 75.8274 25.9995 75.0075 27.9791C74.1877 29.9586 72.7993 31.6505 71.0179 32.8409ZM68.6107 18.4288C67.5419 17.7146 66.2853 17.3333 64.9999 17.3333C63.2762 17.3333 61.623 18.0182 60.4042 19.2371C59.1853 20.4561 58.5006 22.1094 58.5006 23.8333C58.5006 25.1189 58.8818 26.3756 59.5959 27.4445C60.3101 28.5135 61.3251 29.3466 62.5127 29.8385C63.7003 30.3305 65.0071 30.4592 66.2678 30.2084C67.5286 29.9576 68.6866 29.3386 69.5956 28.4295C70.5045 27.5205 71.1235 26.3623 71.3743 25.1014C71.6251 23.8405 71.4964 22.5336 71.0045 21.3459C70.5125 20.1582 69.6795 19.143 68.6107 18.4288Z" fill="#F79838"/>
</svg>
