<svg width="36" height="36" viewBox="0 0 36 36" fill="none" xmlns="http://www.w3.org/2000/svg">
<path d="M28.4252 22.3009C27.6882 21.5335 26.7992 21.1232 25.857 21.1232C24.9225 21.1232 24.0259 21.5259 23.2585 22.2933L20.8575 24.6867C20.66 24.5803 20.4624 24.4816 20.2725 24.3828C19.9989 24.246 19.7406 24.1169 19.5203 23.9801C17.2712 22.5517 15.2274 20.6901 13.2671 18.2816C12.3173 17.0811 11.6791 16.0705 11.2156 15.0448C11.8386 14.4749 12.4161 13.8823 12.9783 13.3124C13.1911 13.0997 13.4038 12.8793 13.6166 12.6666C15.2122 11.071 15.2122 9.00434 13.6166 7.40875L11.5423 5.33448C11.3068 5.09895 11.0636 4.85581 10.8357 4.61267C10.3798 4.14159 9.90113 3.65532 9.40726 3.19943C8.67025 2.47002 7.78887 2.08252 6.86191 2.08252C5.93495 2.08252 5.03838 2.47002 4.27857 3.19943C4.27098 3.20703 4.27098 3.20703 4.26338 3.21463L1.68004 5.82076C0.707491 6.79331 0.152834 7.97861 0.0312648 9.35385C-0.151088 11.5725 0.502344 13.6392 1.00382 14.9916C2.2347 18.312 4.07343 21.3892 6.81632 24.6867C10.1443 28.6605 14.1484 31.7985 18.7225 34.0095C20.47 34.8377 22.8026 35.8179 25.4088 35.985C25.5683 35.9926 25.7355 36.0002 25.8874 36.0002C27.6426 36.0002 29.1166 35.3696 30.2715 34.1159C30.2791 34.1007 30.2943 34.0931 30.3019 34.0779C30.697 33.5992 31.1529 33.1661 31.6316 32.7027C31.9583 32.3911 32.2926 32.0644 32.6193 31.7225C33.3715 30.9399 33.7666 30.0281 33.7666 29.0936C33.7666 28.1514 33.3639 27.2473 32.5965 26.4875L28.4252 22.3009ZM31.1453 30.3017C31.1377 30.3017 31.1377 30.3093 31.1453 30.3017C30.849 30.6208 30.545 30.9095 30.2183 31.2286C29.7244 31.6997 29.223 32.1936 28.7519 32.7482C27.9845 33.5688 27.0803 33.9563 25.895 33.9563C25.7811 33.9563 25.6595 33.9563 25.5455 33.9487C23.2889 33.8044 21.1918 32.923 19.619 32.1708C15.3185 30.0889 11.5423 27.1333 8.40432 23.3874C5.81338 20.2647 4.08103 17.3774 2.93372 14.2774C2.2271 12.3855 1.96877 10.9115 2.08274 9.52101C2.15872 8.63204 2.50063 7.89503 3.13127 7.26439L5.7222 4.67345C6.09451 4.32394 6.48961 4.13399 6.87711 4.13399C7.35578 4.13399 7.74329 4.42272 7.98642 4.66586C7.99402 4.67345 8.00162 4.68105 8.00922 4.68865C8.4727 5.12174 8.91338 5.57002 9.37687 6.0487C9.6124 6.29184 9.85554 6.53498 10.0987 6.78571L12.1729 8.85998C12.9783 9.66537 12.9783 10.41 12.1729 11.2154C11.9526 11.4357 11.7399 11.6561 11.5195 11.8688C10.8813 12.5222 10.2734 13.1301 9.61241 13.7227C9.59721 13.7379 9.58201 13.7455 9.57441 13.7607C8.92098 14.4142 9.04255 15.0524 9.17932 15.4855C9.18691 15.5083 9.19451 15.5311 9.20211 15.5539C9.74157 16.8607 10.5014 18.0916 11.6563 19.558L11.6639 19.5656C13.7609 22.149 15.972 24.1625 18.4109 25.7049C18.7225 25.9024 19.0416 26.062 19.3455 26.2139C19.619 26.3507 19.8774 26.4799 20.0977 26.6166C20.1281 26.6318 20.1585 26.6546 20.1889 26.6698C20.4472 26.799 20.6904 26.8598 20.9411 26.8598C21.5717 26.8598 21.9668 26.4647 22.096 26.3355L24.6945 23.737C24.9529 23.4786 25.3632 23.1671 25.8418 23.1671C26.3129 23.1671 26.7004 23.4634 26.936 23.7218C26.9436 23.7294 26.9436 23.7294 26.9512 23.737L31.1377 27.9235C31.9203 28.6985 31.9203 29.4963 31.1453 30.3017Z" fill="#F79838"/>
<path d="M19.4293 8.56362C21.42 8.89794 23.2283 9.84009 24.6719 11.2837C26.1156 12.7274 27.0501 14.5357 27.392 16.5264C27.4756 17.0278 27.9087 17.3774 28.4026 17.3774C28.4634 17.3774 28.5165 17.3698 28.5773 17.3622C29.1396 17.271 29.5119 16.7391 29.4207 16.1769C29.0104 13.7683 27.8707 11.5725 26.1308 9.8325C24.3908 8.09254 22.195 6.95284 19.7864 6.54254C19.2241 6.45136 18.6999 6.82367 18.6011 7.37833C18.5023 7.93298 18.867 8.47245 19.4293 8.56362Z" fill="#F79838"/>
<path d="M35.9321 15.8804C35.2559 11.9142 33.3868 8.30511 30.5147 5.43305C27.6427 2.56098 24.0336 0.691864 20.0674 0.0156379C19.5127 -0.0831367 18.9885 0.296766 18.8897 0.851423C18.7985 1.41368 19.1708 1.93794 19.7331 2.03672C23.2738 2.63696 26.5029 4.31613 29.0711 6.87668C31.6392 9.44482 33.3108 12.674 33.911 16.2147C33.9946 16.7162 34.4277 17.0657 34.9216 17.0657C34.9824 17.0657 35.0356 17.0581 35.0963 17.0505C35.651 16.9669 36.0309 16.435 35.9321 15.8804Z" fill="#F79838"/>
</svg>
