<svg width="301" height="71" viewBox="0 0 301 71" fill="none" xmlns="http://www.w3.org/2000/svg">
<g clip-path="url(#clip0_1101_3771)">
<path d="M83.1616 25.8361C83.208 27.3411 82.8746 28.8335 82.1922 30.1757C81.5945 31.3228 80.6769 32.272 79.5507 32.9083C78.3782 33.5597 77.0659 33.919 75.7251 33.9557V31.2362C76.9811 31.2007 78.1765 30.689 79.0693 29.8048C79.9476 28.9265 80.3705 27.5862 80.3705 25.771V8.73145H83.1746L83.1616 25.8361Z" fill="#F79838"/>
<path d="M87.8784 19.1999C87.883 17.7915 88.1752 16.3989 88.7372 15.1075C89.2796 13.8338 90.059 12.6747 91.0339 11.6918C92.0141 10.7081 93.1678 9.91399 94.4366 9.34959C95.7437 8.78715 97.1516 8.49707 98.5745 8.49707C99.9974 8.49707 101.405 8.78715 102.712 9.34959C103.984 9.91546 105.142 10.7093 106.128 11.6918C107.111 12.675 107.901 13.8336 108.457 15.1075C109.019 16.3985 109.304 17.7922 109.297 19.1999C109.307 20.633 109.021 22.0528 108.457 23.3703C107.909 24.6428 107.118 25.7963 106.128 26.7665C105.135 27.7504 103.965 28.5384 102.68 29.0892C101.375 29.6403 99.9714 29.9192 98.555 29.909C97.1303 29.9179 95.7185 29.639 94.4041 29.0892C93.1378 28.5577 91.9833 27.7917 91.0014 26.8316C90.0282 25.859 89.2585 24.7022 88.7372 23.4289C88.168 22.0918 87.8759 20.6531 87.8784 19.1999ZM90.7737 19.2324C90.7651 20.2886 90.971 21.3355 91.3787 22.3098C91.7786 23.251 92.3475 24.111 93.0573 24.8472C93.7695 25.575 94.6156 26.1583 95.5492 26.5648C96.5137 26.9768 97.5517 27.1892 98.6006 27.1892C99.6494 27.1892 100.687 26.9768 101.652 26.5648C102.577 26.1609 103.413 25.5771 104.111 24.8472C104.809 24.1066 105.368 23.2473 105.764 22.3098C106.174 21.3247 106.379 20.2668 106.369 19.1999C106.375 18.1334 106.169 17.0763 105.764 16.09C105.369 15.1403 104.8 14.273 104.085 13.533C103.374 12.8026 102.528 12.2171 101.593 11.8089C100.629 11.3969 99.5909 11.1845 98.542 11.1845C97.4932 11.1845 96.4552 11.3969 95.4906 11.8089C94.5588 12.2273 93.7136 12.8165 92.9988 13.5461C92.2795 14.2856 91.7154 15.1616 91.3397 16.1225C90.9562 17.114 90.7641 18.1693 90.7737 19.2324Z" fill="#F79838"/>
<path d="M130.526 8.73145V29.6487H127.774V20.475H116.785V29.6487H113.975V8.73145H116.785V17.84H127.774V8.73145H130.526Z" fill="#F79838"/>
<path d="M154.658 30.3122L138.483 13.9102L139.297 14.1119L139.349 29.6486H136.544V8.09375H136.688L152.693 24.5348L152.042 24.3916L151.984 8.71183H154.762V30.3122H154.658Z" fill="#F79838"/>
<path d="M169.901 29.6487V8.73148H175.607C177.412 8.68478 179.208 9.00805 180.884 9.68137C182.223 10.2354 183.418 11.0877 184.378 12.1732C185.249 13.1877 185.912 14.3638 186.329 15.6345C186.733 16.8518 186.942 18.1255 186.947 19.408C186.972 20.8685 186.691 22.318 186.121 23.6631C185.6 24.8807 184.826 25.974 183.851 26.8706C182.889 27.7585 181.764 28.4522 180.539 28.9135C179.277 29.391 177.939 29.6314 176.59 29.6227L169.901 29.6487ZM172.712 26.9552H176.069C177.156 26.9656 178.236 26.7895 179.264 26.4347C180.204 26.1102 181.07 25.599 181.808 24.9318C182.542 24.2602 183.122 23.4365 183.506 22.518C183.923 21.4851 184.129 20.3788 184.111 19.2649C184.13 18.1001 183.909 16.9439 183.46 15.8687C183.067 14.9359 182.474 14.1008 181.723 13.4224C180.998 12.7702 180.154 12.2642 179.238 11.9325C178.301 11.5926 177.312 11.4208 176.316 11.425H172.699L172.712 26.9552Z" fill="#F79838"/>
<path d="M194.208 22.2382C194.186 23.1259 194.411 24.0022 194.859 24.7691C195.299 25.4996 195.923 26.1028 196.667 26.5192C197.445 26.9578 198.325 27.1823 199.218 27.1698C200.127 27.1799 201.023 26.9558 201.82 26.5192C202.577 26.1127 203.209 25.5077 203.648 24.7691C204.094 24.0012 204.319 23.1256 204.299 22.2382V8.73145H207.045V22.3293C207.076 23.7315 206.711 25.1141 205.991 26.3175C205.301 27.4278 204.319 28.3279 203.154 28.92C201.918 29.528 200.559 29.8441 199.182 29.8441C197.805 29.8441 196.446 29.528 195.21 28.92C194.056 28.323 193.087 27.4234 192.406 26.3175C191.693 25.1117 191.332 23.7299 191.365 22.3293V8.73145H194.143L194.208 22.2382Z" fill="#F79838"/>
<path d="M230.955 30.3122L214.781 13.9102L215.607 14.1249L215.665 29.6616H212.861V8.09375H213.004L228.984 24.5348L228.333 24.3916L228.274 8.71183H231.052V30.3122H230.955Z" fill="#F79838"/>
<path d="M253.609 8.73145V29.6487H250.831V20.475H239.862V29.6487H237.077V8.73145H239.881V17.84H250.851V8.73145H253.609Z" fill="#F79838"/>
<path d="M257.539 29.6484L266.687 7.85938H266.856L275.964 29.6484H272.757L265.925 12.2575L267.923 10.9563L260.291 29.6484H257.539ZM262.894 21.7175H270.701L271.631 24.1507H262.087L262.894 21.7175Z" fill="#F79838"/>
<path d="M279.907 29.6484V8.06104L290.877 23.6302L289.686 23.396L300.623 8.06104H300.681V29.6484H297.903V14.4305L298.079 15.8489L290.206 27.0134H290.148L282.132 15.8489L282.627 14.5477V29.6484H279.907Z" fill="#F79838"/>
<path d="M86.4796 52.2832C85.9346 52.2834 85.395 52.3917 84.8921 52.602C84.3926 52.8104 83.9327 53.1031 83.5323 53.4673C83.1306 53.8366 82.8018 54.278 82.5629 54.7685C82.3237 55.2587 82.2012 55.7976 82.2051 56.343C82.1961 57.0392 82.4029 57.721 82.7971 58.2949C83.2035 58.8599 83.7509 59.3086 84.3846 59.5961C85.0684 59.9167 85.8156 60.0791 86.5707 60.0711C87.2365 60.0855 87.8989 59.9729 88.5225 59.7392C89.0577 59.5325 89.5496 59.228 89.9734 58.8414C90.3532 58.4983 90.6568 58.0794 90.8648 57.6117L92.6605 59.1732C92.0901 60.1872 91.2561 61.028 90.2467 61.6065C89.025 62.2924 87.6393 62.632 86.2389 62.5889C85.0128 62.6084 83.8003 62.3293 82.7061 61.7757C81.7042 61.2709 80.8518 60.5128 80.2337 59.5766C79.6236 58.6409 79.3065 57.5445 79.3229 56.4276C79.3144 55.5513 79.5223 54.6865 79.9279 53.9097C80.334 53.1363 80.8916 52.4526 81.5675 51.8993C82.2493 51.3277 83.0209 50.8726 83.8511 50.5526C84.6817 50.2287 85.5624 50.0525 86.4536 50.0321L86.4796 52.2832ZM97.0716 62.3482H93.8185L83.7926 49.0692C83.6169 48.8024 83.4152 48.4641 83.181 48.0607C82.9424 47.6311 82.7442 47.1802 82.589 46.7139C82.4258 46.2229 82.3423 45.7089 82.3417 45.1915C82.3415 44.3754 82.5522 43.5731 82.9533 42.8623C83.3682 42.1318 83.9729 41.5271 84.7034 41.1122C85.5595 40.6512 86.5229 40.4266 87.4946 40.4615C88.5484 40.4392 89.5929 40.6619 90.546 41.1122C91.3651 41.5058 92.1128 42.0336 92.758 42.6736L91.3397 44.5539C90.8207 44.0537 90.2441 43.6169 89.6221 43.2527C89.1092 42.949 88.5264 42.7831 87.9305 42.7712C87.5697 42.7568 87.2098 42.8176 86.8738 42.9498C86.5378 43.0819 86.2329 43.2826 85.9786 43.539C85.5113 44.0342 85.2567 44.6929 85.2695 45.3737C85.2728 45.7419 85.3456 46.1061 85.4842 46.4472C85.6093 46.7643 85.7549 47.0729 85.9201 47.3711C86.0632 47.6248 86.1543 47.7875 86.1934 47.8655L97.0716 62.3482ZM93.747 50.0841H96.3494L92.9662 58.7633L90.9428 57.4621L93.747 50.0841Z" fill="#F79838"/>
<path d="M109.681 62.3485L118.822 40.5659H118.997L128.106 62.3485H124.892L118.074 44.9641L120.071 43.6628L112.433 62.3485H109.681ZM115.035 54.424H122.843L123.766 56.8508H114.222L115.035 54.424Z" fill="#F79838"/>
<path d="M144.885 45.1654C144.129 44.7841 143.344 44.4643 142.537 44.209C141.734 43.9484 140.895 43.8123 140.051 43.8056C139.097 43.7554 138.154 44.0306 137.377 44.5863C137.055 44.8275 136.796 45.1425 136.622 45.5049C136.447 45.8673 136.363 46.2663 136.375 46.6683C136.365 47.2874 136.598 47.8858 137.026 48.3339C137.505 48.8288 138.075 49.2265 138.704 49.505C139.401 49.8303 140.123 50.1556 140.871 50.4289C141.619 50.7021 142.172 50.9624 142.823 51.2681C143.449 51.5721 144.029 51.9619 144.547 52.4262C145.066 52.9039 145.481 53.4844 145.764 54.1308C146.086 54.93 146.239 55.7874 146.212 56.6487C146.225 57.7209 145.933 58.7747 145.37 59.687C144.807 60.5994 143.995 61.3328 143.031 61.8016C141.893 62.3471 140.642 62.6147 139.381 62.5823C138.489 62.5874 137.599 62.4803 136.733 62.2635C135.932 62.0632 135.152 61.7865 134.404 61.4372C133.746 61.128 133.109 60.7759 132.498 60.3832L133.74 58.1842C134.246 58.5402 134.779 58.8557 135.334 59.1276C135.936 59.4296 136.566 59.6715 137.215 59.8497C137.834 60.0274 138.476 60.1193 139.121 60.123C139.788 60.1232 140.45 59.9997 141.073 59.7587C141.697 59.5357 142.251 59.1519 142.68 58.6461C143.131 58.0808 143.362 57.3713 143.33 56.6487C143.353 56.009 143.153 55.3812 142.764 54.8726C142.354 54.371 141.848 53.9573 141.274 53.6559C140.644 53.3114 139.992 53.0072 139.323 52.745C138.672 52.4978 138.021 52.218 137.325 51.9188C136.658 51.6256 136.027 51.2567 135.445 50.8192C134.87 50.3909 134.395 49.8425 134.053 49.2122C133.688 48.4983 133.509 47.7039 133.532 46.9025C133.502 45.9004 133.762 44.9109 134.28 44.0528C134.819 43.2186 135.571 42.5444 136.46 42.101C137.453 41.6145 138.542 41.3524 139.648 41.3333C140.857 41.3158 142.061 41.4825 143.22 41.8277C144.175 42.1245 145.092 42.5329 145.952 43.0444L144.885 45.1654Z" fill="#F79838"/>
<path d="M163.734 45.1654C162.98 44.783 162.197 44.4631 161.392 44.209C160.589 43.9484 159.75 43.8123 158.906 43.8056C157.95 43.7565 157.006 44.0316 156.226 44.5863C155.908 44.8276 155.651 45.141 155.478 45.5008C155.305 45.8605 155.22 46.2562 155.23 46.6553C155.22 47.2744 155.453 47.8728 155.881 48.3209C156.36 48.8158 156.93 49.2135 157.559 49.492C158.256 49.8173 158.978 50.1426 159.726 50.4158C160.474 50.6891 161.027 50.9494 161.678 51.2551C162.304 51.5591 162.884 51.9489 163.402 52.4132C163.921 52.8909 164.336 53.4714 164.619 54.1178C164.941 54.917 165.094 55.7744 165.067 56.6357C165.081 57.7089 164.789 58.7638 164.224 59.6765C163.659 60.5893 162.846 61.322 161.879 61.7886C160.744 62.334 159.495 62.6016 158.236 62.5693C157.344 62.5744 156.454 62.4673 155.588 62.2505C154.787 62.0501 154.007 61.7735 153.259 61.4242C152.6 61.1164 151.963 60.7643 151.353 60.3702L152.595 58.1712C153.099 58.5258 153.63 58.8412 154.183 59.1146C154.787 59.4156 155.419 59.6574 156.069 59.8367C156.689 60.0144 157.331 60.1063 157.976 60.11C158.643 60.1102 159.305 59.9867 159.928 59.7457C160.551 59.5207 161.105 59.1373 161.535 58.6331C161.986 58.0678 162.217 57.3583 162.185 56.6357C162.208 55.996 162.008 55.3682 161.619 54.8595C161.209 54.358 160.703 53.9442 160.129 53.6429C159.498 53.2996 158.846 52.9954 158.177 52.732C157.527 52.4848 156.876 52.205 156.18 51.9058C155.513 51.6126 154.882 51.2437 154.3 50.8062C153.725 50.3778 153.25 49.8295 152.908 49.1992C152.543 48.4853 152.364 47.6909 152.387 46.8895C152.363 45.8905 152.627 44.9057 153.148 44.0528C153.687 43.2186 154.439 42.5444 155.328 42.101C156.321 41.6145 157.41 41.3524 158.516 41.3333C159.725 41.3158 160.929 41.4825 162.088 41.8277C163.043 42.1258 163.96 42.5341 164.82 43.0444L163.734 45.1654Z" fill="#F79838"/>
<path d="M169.459 51.9059C169.45 50.4995 169.731 49.1063 170.285 47.8136C170.828 46.5398 171.607 45.3807 172.582 44.3979C173.559 43.4104 174.714 42.6158 175.985 42.0556C177.292 41.4932 178.7 41.2031 180.123 41.2031C181.546 41.2031 182.954 41.4932 184.261 42.0556C185.535 42.6168 186.694 43.4112 187.676 44.3979C188.659 45.3796 189.447 46.5386 189.999 47.8136C190.56 49.1045 190.846 50.4983 190.838 51.9059C190.849 53.337 190.564 54.7548 189.999 56.0699C189.455 57.3453 188.666 58.5014 187.676 59.4726C186.691 60.4415 185.532 61.2163 184.261 61.7562C182.957 62.3122 181.553 62.5934 180.136 62.5825C178.711 62.5933 177.3 62.3167 175.985 61.7692C174.718 61.2424 173.563 60.4784 172.582 59.5181C171.6 58.5514 170.819 57.3992 170.285 56.1284C169.724 54.7922 169.443 53.3551 169.459 51.9059ZM172.354 51.9385C172.347 52.9945 172.553 54.0412 172.959 55.0159C173.347 55.957 173.91 56.8158 174.619 57.5468C175.329 58.2787 176.175 58.8644 177.11 59.2709C178.543 59.8994 180.134 60.0711 181.667 59.7626C183.2 59.4541 184.601 58.6803 185.679 57.5468C186.378 56.811 186.936 55.9532 187.325 55.0159C187.739 54.0319 187.947 52.9735 187.937 51.9059C187.944 50.8387 187.736 49.781 187.325 48.796C186.945 47.8444 186.386 46.9743 185.679 46.2326C184.969 45.505 184.125 44.9217 183.194 44.515C182.23 44.0985 181.192 43.8837 180.142 43.8837C179.093 43.8837 178.054 44.0985 177.091 44.515C176.156 44.9286 175.31 45.5184 174.599 46.2521C173.888 46.9883 173.329 47.8571 172.953 48.809C172.554 49.8038 172.35 50.8665 172.354 51.9385Z" fill="#F79838"/>
<path d="M212.933 60.7867C212.481 61.0794 212.009 61.3403 211.521 61.5674C210.848 61.8757 210.143 62.1113 209.42 62.2701C207.082 62.7979 204.638 62.5958 202.419 61.691C201.167 61.1676 200.039 60.3874 199.107 59.4008C198.197 58.4352 197.483 57.3016 197.006 56.0632C196.512 54.7738 196.262 53.4036 196.271 52.0229C196.255 50.5455 196.515 49.0781 197.038 47.6963C197.522 46.4181 198.254 45.2484 199.192 44.2546C200.121 43.2813 201.239 42.5085 202.478 41.9839C203.792 41.4349 205.204 41.1604 206.628 41.1772C207.787 41.1624 208.94 41.3337 210.044 41.6846C210.958 41.9747 211.832 42.3768 212.647 42.8818L211.521 45.4842C210.857 45.0559 210.156 44.6879 209.426 44.3847C208.557 44.0291 207.626 43.8521 206.687 43.8642C205.691 43.8577 204.706 44.0663 203.798 44.4758C202.891 44.8756 202.074 45.4555 201.398 46.1804C200.695 46.9244 200.139 47.794 199.758 48.7438C199.36 49.7412 199.159 50.806 199.166 51.8797C199.158 52.9589 199.339 54.0311 199.699 55.0482C200.051 56.0003 200.593 56.8704 201.293 57.6052C201.97 58.3292 202.793 58.9014 203.707 59.2837C204.718 59.6991 205.803 59.9049 206.895 59.8888C207.861 59.9055 208.821 59.7399 209.725 59.4008C210.455 59.125 211.147 58.7554 211.781 58.3013L212.933 60.7867Z" fill="#F79838"/>
<path d="M218.658 41.4507H221.463V62.3484H218.652L218.658 41.4507Z" fill="#F79838"/>
<path d="M226.407 62.3485L235.516 40.5659H235.691L244.8 62.3485H241.632L234.8 44.9641L236.798 43.6628L229.159 62.3485H226.407ZM231.762 54.424H239.569L240.493 56.8508H230.948L231.762 54.424Z" fill="#F79838"/>
<path d="M247.637 41.4507H261.521V44.1442H255.945V62.3614H253.134V44.1442H247.669L247.637 41.4507Z" fill="#F79838"/>
<path d="M267.994 41.4507H281.592V44.1442H270.798V50.5072H280.434V53.1617H270.798V59.6679H281.969V62.3549H267.994V41.4507Z" fill="#F79838"/>
<path d="M299.692 45.1654C298.939 44.783 298.156 44.4631 297.35 44.209C296.547 43.9484 295.709 43.8123 294.865 43.8056C293.909 43.7565 292.964 44.0316 292.184 44.5863C291.864 44.8289 291.607 45.1444 291.434 45.5066C291.261 45.8687 291.177 46.2671 291.189 46.6683C291.178 47.2874 291.412 47.8858 291.839 48.3339C292.318 48.8288 292.888 49.2265 293.518 49.505C294.214 49.8303 294.936 50.1556 295.684 50.4289C296.433 50.7021 296.986 50.9624 297.636 51.2681C298.262 51.5721 298.842 51.9619 299.36 52.4262C299.88 52.9039 300.294 53.4844 300.577 54.1309C300.899 54.93 301.052 55.7874 301.026 56.6487C301.04 57.7219 300.747 58.7768 300.183 59.6896C299.618 60.6023 298.805 61.335 297.838 61.8016C296.703 62.347 295.454 62.6146 294.195 62.5823C293.302 62.5874 292.412 62.4803 291.547 62.2635C290.746 62.0632 289.966 61.7865 289.217 61.4373C288.559 61.1294 287.922 60.7773 287.311 60.3833L288.554 58.1842C289.058 58.5388 289.589 58.8542 290.141 59.1276C290.745 59.4286 291.377 59.6705 292.028 59.8498C292.648 60.0274 293.289 60.1193 293.934 60.123C294.602 60.1232 295.264 59.9997 295.886 59.7587C296.509 59.5338 297.063 59.1503 297.493 58.6461C297.944 58.0808 298.175 57.3713 298.144 56.6487C298.166 56.009 297.966 55.3812 297.578 54.8726C297.168 54.371 296.661 53.9573 296.088 53.6559C295.456 53.3126 294.805 53.0085 294.136 52.745C293.485 52.4978 292.835 52.218 292.139 51.9188C291.472 51.6256 290.841 51.2567 290.258 50.8192C289.683 50.3909 289.208 49.8425 288.866 49.2122C288.501 48.4983 288.322 47.7039 288.346 46.9025C288.325 45.8972 288.596 44.9074 289.126 44.0528C289.665 43.2186 290.417 42.5444 291.306 42.101C292.299 41.6145 293.388 41.3524 294.494 41.3333C295.703 41.3158 296.907 41.4825 298.066 41.8277C299.021 42.1258 299.938 42.5341 300.798 43.0444L299.692 45.1654Z" fill="#F79838"/>
<path d="M70.507 0H0V70.507H70.507V0Z" fill="url(#paint0_radial_1101_3771)"/>
<path d="M13.7603 64.2025V64.8856H13.7798V64.1895L13.7603 64.2025Z" fill="#28538F"/>
<path d="M42.9017 48.4644H42.186V51.9842H42.9017V48.4644Z" fill="#123559"/>
<path d="M13.7798 64.8857H13.7603V64.9768H13.7798V64.8857Z" fill="#123559"/>
<path d="M14.2222 63.0249L14.3133 63.1485V63.5063L15.2631 62.7646H14.2417L14.2222 63.0249Z" fill="#28538F"/>
<path d="M41.6783 48.4644H39.8306V51.9842H41.6783V48.4644Z" fill="#123559"/>
<path d="M15.2632 62.7648H17.3256L16.2977 61.958L15.2632 62.7648Z" fill="#051D3C"/>
<path d="M4.04682 65.8096H0V68.5356H4.04682V65.8096Z" fill="#051D3C"/>
<path d="M63.1095 24.6714H45.4258V28.3409H63.1095V24.6714Z" fill="#28538F"/>
<path d="M59.1541 14.5283H47.1763V26.5061H59.1541V14.5283Z" fill="#28538F"/>
<path d="M60.8452 21.2231H56.0566V26.5061H60.8452V21.2231Z" fill="#28538F"/>
<path d="M16.2914 48.4644H9.4209V52.9406H16.2914V48.4644Z" fill="#28538F"/>
<path d="M67.5273 48.1782L67.8396 61.5548H70.5072V48.1782H67.5273Z" fill="#28538F"/>
<path d="M63.1228 47.443V41.7371C63.1228 41.7371 63.1228 41.698 63.1228 41.6785V25.4132C63.1128 25.2475 63.0399 25.0919 62.9189 24.9782C62.798 24.8645 62.6382 24.8013 62.4722 24.8016H61.1709C61.0049 24.8019 60.8451 24.7387 60.7241 24.625C60.6032 24.5114 60.5303 24.3557 60.5203 24.19V22.2707C60.5104 22.105 60.4374 21.9494 60.3165 21.8357C60.1955 21.722 60.0357 21.6588 59.8697 21.6591H59.5964C59.4315 21.6595 59.2726 21.5973 59.1518 21.485C59.031 21.3726 58.9574 21.2186 58.9458 21.0541V15.2766C58.9359 15.1109 58.863 14.9553 58.742 14.8416C58.6211 14.7279 58.4612 14.6647 58.2952 14.665H47.8854C47.7194 14.6647 47.5596 14.7279 47.4386 14.8416C47.3177 14.9553 47.2447 15.1109 47.2348 15.2766V25.4327C47.2248 25.5984 47.1519 25.754 47.031 25.8677C46.91 25.9814 46.7502 26.0446 46.5842 26.0443H45.9336C45.7686 26.0439 45.6097 26.1061 45.4889 26.2185C45.3681 26.3308 45.2945 26.4848 45.2829 26.6493V35.5953C45.2714 35.7598 45.1978 35.9138 45.077 36.0262C44.9562 36.1385 44.7973 36.2008 44.6323 36.2004C44.7234 36.851 44.7559 37.2478 44.7559 37.2478L45.0682 37.8985L45.1398 37.9765L45.4976 38.3799H45.6603L45.8295 38.51L45.901 38.9264C45.9935 39.0122 46.059 39.1229 46.0897 39.2452C46.1352 39.4404 46.2328 40.4293 46.2328 40.4293C46.6519 40.7296 46.9606 41.1594 47.1112 41.6525C47.1106 42.186 46.9085 42.6996 46.5451 43.0904V47.3714C46.5451 47.3714 47.2283 47.6772 47.7618 48.022H52.0103V52.0103H52.6609V61.5483H58.5164V60.5984H62.0883V61.5483H64.0011L64.3134 48.1782H63.6628C63.5037 48.1333 63.3642 48.0366 63.2664 47.9034C63.1686 47.7702 63.118 47.6082 63.1228 47.443Z" fill="#28538F"/>
<path d="M24.7559 27.0591H17.6577V30.0259H16.0832V48.4187C16.0732 48.5844 16.0003 48.7401 15.8793 48.8538C15.7584 48.9675 15.5986 49.0306 15.4326 49.0303H11.8737C11.7077 49.0306 11.5479 48.9675 11.4269 48.8538C11.306 48.7401 11.233 48.5844 11.2231 48.4187V41.4507H5.45865V51.6653H0V70.5331H8.45798V54.8468H10.7416V56.7336H11.5094V51.8214H11.646V56.7336H12.4202V60.0973H13.7214V63.9359L14.2745 63.5V63.1486L14.1769 63.0185V62.7648H15.1983L16.2263 61.958L17.2608 62.7648H19.8112L19.7396 62.1857V61.9905L20.2666 62.0881V61.7368H20.5008L20.5529 61.4831H21.2881C21.2881 61.4831 20.9563 60.904 21.0734 60.6438C21.1905 60.3835 21.4768 59.9086 21.4768 59.9086V51.893C21.2299 51.4926 21.1035 51.0296 21.1124 50.5593C21.0749 50.3537 21.1173 50.1415 21.231 49.9662C21.3447 49.7909 21.521 49.6655 21.724 49.6159C21.6914 49.1731 21.8108 48.7325 22.0623 48.3667C22.6081 47.9691 23.1975 47.6351 23.819 47.3712V43.0707C23.4555 42.6796 23.2513 42.1668 23.2464 41.6328C23.4013 41.1402 23.7118 40.711 24.1313 40.4097C24.1313 40.4097 24.2093 39.5834 24.2614 39.2906H26.3238V30.0259H24.7559V27.0591Z" fill="#28538F"/>
<path d="M12.433 56.7399H11.6588V51.8213H11.5221V56.7399H10.7544V54.8466H5.79675V56.7399H5.02902V56.5252V51.8213H4.89239V56.5512V56.7399H4.11816V56.7529H12.433V56.7399Z" fill="#28538F"/>
<path d="M46.6944 47.3712V43.0707C47.0577 42.68 47.2599 42.1664 47.2604 41.6328C47.1098 41.1398 46.8012 40.7099 46.3821 40.4097C46.3821 40.4097 46.2845 39.4207 46.239 39.2256C46.2083 39.1033 46.1427 38.9925 46.0503 38.9068L45.9787 38.4904L45.8096 38.3602H45.6469L45.2891 37.9569L45.2175 37.8788L44.9052 37.2282C44.9052 37.2282 44.9052 36.8248 44.7816 36.1807C44.4303 33.7409 43.1485 27.6707 38.9846 25.6863C39.059 25.5026 39.0749 25.3003 39.0302 25.1072L38.8415 24.7234V23.9882C38.6646 23.8858 38.497 23.7683 38.3405 23.6368C38.1442 23.4914 37.924 23.3813 37.6899 23.3115C37.6899 23.3115 37.4297 23.1229 37.5012 22.9277C37.5728 22.7325 37.9046 22.3226 37.8135 22.1274C37.6631 21.9225 37.4859 21.7386 37.2865 21.5809V17.6772C37.2865 17.6772 37.3841 17.0266 37.3841 16.8444C37.3841 16.6623 37.833 16.2654 37.7875 16.0117C37.7734 15.8682 37.7121 15.7336 37.6132 15.6288C37.5142 15.524 37.3833 15.455 37.241 15.4326C37.241 15.4326 37.0002 15.0487 36.8116 15.0162C36.796 14.7675 36.7546 14.5211 36.688 14.281C36.5904 14.0533 36.4277 13.9882 36.3757 13.7996C36.1906 13.3031 36.0704 12.7848 36.0178 12.2576C36.0894 11.9388 36.1154 11.7111 36.1154 11.7111V11.2947C36.1154 11.2947 35.8747 11.1971 35.8747 11.0735C35.8283 10.833 35.7653 10.5961 35.686 10.3643C35.686 10.3643 35.686 9.18021 35.7315 8.98502C35.8756 8.53994 35.9416 8.0733 35.9267 7.60572C35.8291 7.12427 35.7316 6.16787 35.5884 6.13534C35.4453 6.10281 35.4258 5.95316 35.3672 5.86858V5.27002C35.348 5.43559 35.3131 5.59898 35.2631 5.75798C35.2176 5.5982 35.1849 5.43502 35.1655 5.27002V5.86858C35.107 5.95316 35.0419 6.10931 34.9378 6.13534C34.8337 6.16136 34.7036 7.12427 34.606 7.60572C34.5895 8.0729 34.6533 8.53944 34.7947 8.98502C34.7947 9.18021 34.8467 10.3643 34.8467 10.3643C34.7648 10.5958 34.6996 10.8328 34.6515 11.0735C34.6515 11.1971 34.4173 11.2947 34.4173 11.2947V11.7111C34.4366 11.8949 34.467 12.0775 34.5084 12.2576C34.4621 12.7858 34.3416 13.3049 34.1506 13.7996C34.105 13.9882 33.9359 14.0533 33.8448 14.281C33.7726 14.5419 33.7333 14.8107 33.7277 15.0813C33.5325 15.1138 33.2983 15.4977 33.2983 15.4977C33.1619 15.5264 33.0383 15.5982 32.9458 15.7024C32.8532 15.8067 32.7966 15.9379 32.7843 16.0767C32.7322 16.3305 33.1876 16.7273 33.1876 16.9095C33.1876 17.0917 33.2787 17.7423 33.2787 17.7423V21.646C33.0818 21.8043 32.9068 21.9881 32.7582 22.1925C32.6607 22.3877 32.999 22.8041 33.064 22.9927C33.1291 23.1814 32.8754 23.3766 32.8754 23.3766C32.6412 23.4463 32.421 23.5564 32.2247 23.7019C32.0683 23.8333 31.9006 23.9509 31.7238 24.0532V24.7884L31.5351 25.1723C31.4948 25.3662 31.5129 25.5677 31.5871 25.7513C28.6334 27.1567 27.1304 30.6179 26.3822 33.383C26.187 34.0922 26.0439 34.7558 25.9398 35.3349C25.8141 35.9804 25.7207 36.6319 25.66 37.2867L25.3543 37.9373L24.9249 38.4188H24.7557L24.593 38.5489L24.5215 38.9653C24.429 39.051 24.3635 39.1618 24.3328 39.2841C24.2807 39.4793 24.1897 40.4682 24.1897 40.4682C23.7702 40.7695 23.4597 41.1987 23.3048 41.6914C23.3097 42.2253 23.5139 42.7381 23.8774 43.1292V47.3712C23.2559 47.6351 22.6665 47.9691 22.1207 48.3667C21.8484 48.7249 21.7082 49.1662 21.7238 49.6159C21.5209 49.6655 21.3445 49.7909 21.2308 49.9662C21.1172 50.1415 21.0748 50.3537 21.1123 50.5592C21.1201 51.0406 21.2695 51.509 21.5417 51.906V59.9086C21.5417 59.9086 21.2554 60.39 21.1383 60.6438C21.0212 60.8975 21.353 61.4831 21.353 61.4831H20.6178L20.5657 61.7368H20.3315V62.0881L19.8045 61.9905V62.1857L19.8761 62.7648H17.3257L19.4597 64.4303H19.1214L18.8091 64.1831V64.9703H19.772V67.3256H26.3757V45.3543H27.8526V44.1377L27.3777 44.5085H26.8572L31.6912 40.7415L36.5253 44.5085H36.0373L35.5624 44.1377V45.3543H37.0393V51.9906H39.3555V47.9893H47.9436C47.3775 47.677 46.6944 47.3712 46.6944 47.3712Z" fill="#123559"/>
<path d="M13.7605 62.0815V60.1036H12.4332V56.7529H4.11839V60.1036H2.79113H0V65.8095V70.5069H5.85552H15.2634V62.0815H13.7605Z" fill="#051D3C"/>
<path d="M26.0182 59.017V56.2324H24.8341V53.2266H15.153V56.2324H14.652V59.017H13.4028V70.5069H28.4971V59.017H26.0182ZM22.6741 56.2324H22.1341V53.5779H22.6741V56.2324ZM24.4503 56.2324H23.0254V53.5779H24.4242L24.4503 56.2324Z" fill="#051D3C"/>
<path d="M67.8397 61.5483L67.5274 48.1782L67.1176 37.957H64.9445L64.5346 48.1782L64.2223 61.5483H62.3095L61.5873 37.957H59.4143L58.6921 61.5483H52.8366V51.9778H52.186V47.9895H39.3233V51.9778H37.0071V45.3545H35.5302V44.1379L36.0052 44.5087H36.5257L31.6916 40.7417L26.8576 44.5087H27.3781L27.853 44.1379V45.3545H26.3761V62.0818H26.3306V70.5398H70.5203V61.5483H67.8397ZM41.6785 51.9778H39.8243V48.4579H41.6785V51.9778ZM42.8952 51.9778H42.186V48.4579H42.8952V51.9778Z" fill="#051D3C"/>
</g>
<defs>
<radialGradient id="paint0_radial_1101_3771" cx="0" cy="0" r="1" gradientUnits="userSpaceOnUse" gradientTransform="translate(35.2568 35.2568) scale(35.2568)">
<stop stop-color="#FFDB94"/>
<stop offset="1" stop-color="#F58423"/>
</radialGradient>
<clipPath id="clip0_1101_3771">
<rect width="301" height="70.507" fill="white"/>
</clipPath>
</defs>
</svg>
