<svg width="130" height="130" viewBox="0 0 130 130" fill="none" xmlns="http://www.w3.org/2000/svg">
<path fill-rule="evenodd" clip-rule="evenodd" d="M49.5226 85.3185V73.262C49.4859 73.2638 49.449 73.2664 49.4122 73.269L49.4112 73.269H49.4111C49.343 73.2738 49.275 73.2786 49.2075 73.2786C47.7268 73.2753 46.2919 72.7645 45.1422 71.8314C43.9925 70.8983 43.1974 69.5992 42.8895 68.1509L31.6564 15.3036C31.3023 13.625 31.6282 11.8744 32.5626 10.4357C33.497 8.99689 34.9637 7.98726 36.6412 7.62806L71.8723 0.139272C73.5508 -0.214326 75.3011 0.111738 76.7398 1.04605C78.1784 1.98035 79.1881 3.44674 79.5478 5.12403L82.2862 18.0066H128.03C128.553 18.0066 129.054 18.2141 129.423 18.5835C129.792 18.9529 130 19.4539 130 19.9763V101.248C130 101.771 129.792 102.272 129.423 102.641C129.054 103.011 128.553 103.218 128.03 103.218C127.508 103.218 127.007 103.011 126.637 102.641C126.268 102.272 126.061 101.771 126.061 101.248V21.946H83.1236L90.7814 57.9703V57.9714C91.1359 59.6501 90.8102 61.4009 89.8758 62.8397C88.9413 64.2786 87.4743 65.2881 85.7965 65.6469L53.4621 72.5198V81.3491L58.6638 76.1079C58.8063 75.7372 59.0576 75.4183 59.3848 75.1933C59.712 74.9683 60.0997 74.8476 60.4968 74.8472H119.026C119.548 74.8472 120.049 75.0548 120.419 75.4242C120.788 75.7936 120.996 76.2946 120.996 76.817C120.996 77.3394 120.788 77.8404 120.419 78.2098C120.049 78.5792 119.548 78.7867 119.026 78.7867H62.5281V83.2889H119.026C119.548 83.2889 120.049 83.4965 120.419 83.8659C120.788 84.2353 120.996 84.7363 120.996 85.2587C120.996 85.7811 120.788 86.2821 120.419 86.6515C120.049 87.0209 119.548 87.2284 119.026 87.2284H62.5281V91.7306H119.026C119.548 91.7306 120.049 91.9381 120.419 92.3075C120.788 92.6769 120.996 93.1779 120.996 93.7003C120.996 94.2227 120.788 94.7237 120.419 95.0931C120.049 95.4625 119.548 95.6701 119.026 95.6701H62.5281V100.172H119.026C119.548 100.172 120.049 100.38 120.419 100.749C120.788 101.119 120.996 101.62 120.996 102.142C120.996 102.664 120.788 103.165 120.419 103.535C120.049 103.904 119.548 104.112 119.026 104.112H62.5281V108.614H119.026C119.548 108.614 120.049 108.822 120.419 109.191C120.788 109.56 120.996 110.061 120.996 110.584C120.996 111.106 120.788 111.607 120.419 111.977C120.049 112.346 119.548 112.553 119.026 112.553H62.5281V117.056H119.026C119.548 117.056 120.049 117.263 120.419 117.633C120.788 118.002 120.996 118.503 120.996 119.025C120.996 119.548 120.788 120.049 120.419 120.418C120.049 120.788 119.548 120.995 119.026 120.995H62.5281V126.06H126.061V114.755C126.061 114.233 126.268 113.732 126.637 113.362C127.007 112.993 127.508 112.785 128.03 112.785C128.553 112.785 129.054 112.993 129.423 113.362C129.792 113.732 130 114.233 130 114.755V128.03C130 128.552 129.792 129.053 129.423 129.423C129.054 129.792 128.553 130 128.03 130H9.9083C9.51941 130 9.13924 129.884 8.81568 129.669C8.49213 129.453 8.23967 129.146 8.09015 128.787C7.94063 128.428 7.90073 128.033 7.97547 127.651C8.05021 127.27 8.23624 126.919 8.51013 126.643L49.5226 85.3185ZM86.9276 58.7902L75.6945 5.94287C75.5522 5.28753 75.1567 4.71497 74.5942 4.34985C74.0316 3.98473 73.3476 3.85662 72.6911 3.99341L37.4603 11.4817C36.8037 11.622 36.2296 12.0169 35.8639 12.5798C35.4982 13.1428 35.3707 13.8279 35.5094 14.4847L46.7425 67.332C46.8837 67.9879 47.2789 68.5612 47.8416 68.9266C48.4043 69.292 49.0888 69.4197 49.7454 69.2819L84.9777 61.7933C85.6342 61.6527 86.2081 61.2575 86.5737 60.6944C86.9392 60.1312 87.0665 59.447 86.9276 58.7902ZM58.5887 126.06V81.7763L14.638 126.06H58.5887ZM45.6086 28.1614L72.0317 22.5449C72.5426 22.4362 72.9894 22.129 73.2739 21.691C73.5583 21.2529 73.6571 20.7197 73.5485 20.2088L71.6766 11.4011C71.5678 10.8901 71.2605 10.4433 70.8223 10.1589C70.3841 9.87442 69.8509 9.77566 69.3398 9.8843L42.9167 15.5008C42.6636 15.5546 42.4237 15.6578 42.2105 15.8043C41.9973 15.9509 41.815 16.138 41.6742 16.355C41.5333 16.572 41.4366 16.8147 41.3895 17.0691C41.3424 17.3235 41.3459 17.5847 41.3998 17.8377L43.2717 26.6446C43.3656 27.086 43.6083 27.4817 43.959 27.7656C44.3097 28.0495 44.7473 28.2044 45.1986 28.2043C45.3363 28.2042 45.4738 28.1898 45.6086 28.1614ZM45.6621 18.944L68.233 14.1461L69.2859 19.1012L46.7151 23.8991L45.6621 18.944ZM9.53027 18.1482L5.12473 19.0847C3.44697 19.4435 1.98 20.4531 1.04553 21.892C0.111069 23.3308 -0.2146 25.0816 0.139969 26.7603L12.9633 87.0861C13.0312 87.4033 13.1762 87.6988 13.3854 87.9467L22.6141 98.8814C22.7989 99.1005 23.0293 99.2765 23.2892 99.3973C23.5491 99.518 23.8323 99.5805 24.1189 99.5805C24.2566 99.5803 24.3941 99.566 24.5289 99.5376C24.8773 99.4631 25.1991 99.2956 25.46 99.0529C25.7209 98.8102 25.9112 98.5014 26.0106 98.1592L29.9928 84.4162C30.083 84.1044 30.0951 83.7753 30.028 83.4577L23.6039 53.2351C23.5501 52.982 23.4469 52.7421 23.3003 52.5289C23.1538 52.3157 22.9666 52.1335 22.7496 51.9926C22.5326 51.8518 22.29 51.755 22.0356 51.7079C21.7812 51.6608 21.5201 51.6643 21.267 51.7181C21.014 51.772 20.774 51.8751 20.5608 52.0217C20.3477 52.1683 20.1655 52.3554 20.0246 52.5724C19.8837 52.7894 19.787 53.032 19.7399 53.2864C19.6928 53.5408 19.6963 53.802 19.7501 54.055L25.764 82.3474L16.4055 84.3367L6.2755 36.6765L15.6336 34.6872L17.7015 44.4163C17.7553 44.6693 17.8585 44.9093 18.0051 45.1225C18.1516 45.3356 18.3388 45.5179 18.5557 45.6587C18.7727 45.7996 19.0154 45.8963 19.2697 45.9434C19.5241 45.9905 19.7853 45.987 20.0383 45.9332C20.2914 45.8793 20.5313 45.7762 20.7445 45.6296C20.9576 45.483 21.1399 45.2959 21.2807 45.0789C21.4216 44.8619 21.5183 44.6193 21.5654 44.3649C21.6125 44.1105 21.609 43.8494 21.5552 43.5963L17.2058 23.1329C16.8449 21.4563 15.8349 19.9908 14.3966 19.0567C12.9583 18.1226 11.2087 17.796 9.53027 18.1482ZM25.2947 86.4757L23.2502 93.5291L18.5136 87.9166L25.2947 86.4757ZM13.3521 23.9534L14.8144 30.8338L5.45654 32.8231L3.99388 25.9417C3.85516 25.2851 3.98251 24.6002 4.34799 24.0373C4.71348 23.4744 5.28728 23.0794 5.94357 22.9389L10.3491 22.0024C11.0059 21.8647 11.6905 21.9927 12.2532 22.3583C12.8159 22.7239 13.211 23.2974 13.3521 23.9534ZM107.366 38.3362L107.359 38.3528L105.952 41.73C105.846 41.9699 105.789 42.2286 105.784 42.491C105.779 42.7533 105.826 43.014 105.923 43.2578C106.021 43.5015 106.165 43.7234 106.35 43.9103C106.534 44.0973 106.753 44.2456 106.995 44.3465C107.238 44.4474 107.498 44.4989 107.76 44.498C108.022 44.497 108.282 44.4437 108.523 44.341C108.765 44.2384 108.983 44.0885 109.166 43.9003C109.349 43.712 109.492 43.4891 109.588 43.2447L110.49 41.0805H116.306L117.207 43.2447C117.303 43.4891 117.446 43.712 117.629 43.9003C117.812 44.0885 118.03 44.2384 118.272 44.341C118.513 44.4437 118.773 44.497 119.035 44.498C119.298 44.4989 119.557 44.4474 119.8 44.3465C120.042 44.2456 120.262 44.0973 120.446 43.9103C120.63 43.7234 120.775 43.5015 120.872 43.2578C120.969 43.014 121.017 42.7533 121.012 42.491C121.007 42.2286 120.949 41.9699 120.843 41.73L119.436 38.3522L119.43 38.3367L115.216 28.2233C115.066 27.8646 114.813 27.5583 114.49 27.3427C114.166 27.1272 113.786 27.0122 113.398 27.0122C113.009 27.0122 112.629 27.1272 112.306 27.3427C111.982 27.5583 111.73 27.8646 111.58 28.2233L107.366 38.3362ZM113.398 34.1021L114.664 37.141L112.132 37.1411L113.398 34.1021ZM126.637 110.083C127.007 110.453 127.508 110.66 128.03 110.66C128.553 110.66 129.054 110.453 129.423 110.083C129.792 109.714 130 109.213 130 108.691V107.419C130 106.896 129.792 106.395 129.423 106.026C129.054 105.657 128.553 105.449 128.03 105.449C127.508 105.449 127.007 105.657 126.637 106.026C126.268 106.395 126.061 106.896 126.061 107.419V108.691C126.061 109.213 126.268 109.714 126.637 110.083ZM94.5449 51.4919C94.5449 50.9695 94.7525 50.4685 95.1218 50.0991C95.4912 49.7297 95.9923 49.5222 96.5147 49.5222H119.026C119.548 49.5222 120.049 49.7297 120.419 50.0991C120.788 50.4685 120.996 50.9695 120.996 51.4919C120.996 52.0143 120.788 52.5153 120.419 52.8847C120.049 53.2541 119.548 53.4617 119.026 53.4617H96.5147C95.9923 53.4617 95.4912 53.2541 95.1218 52.8847C94.7525 52.5153 94.5449 52.0143 94.5449 51.4919ZM96.9903 58.5408C96.6209 58.9102 96.4134 59.4112 96.4134 59.9336C96.4134 60.456 96.6209 60.957 96.9903 61.3264C97.3597 61.6958 97.8607 61.9033 98.3831 61.9033H119.026C119.548 61.9033 120.049 61.6958 120.419 61.3264C120.788 60.957 120.996 60.456 120.996 59.9336C120.996 59.4112 120.788 58.9102 120.419 58.5408C120.049 58.1714 119.548 57.9639 119.026 57.9639H98.3831C97.8607 57.9639 97.3597 58.1714 96.9903 58.5408ZM100.173 66.4056H119.026C119.548 66.4056 120.049 66.6131 120.419 66.9825C120.788 67.3519 120.996 67.8529 120.996 68.3753C120.996 68.8977 120.788 69.3987 120.419 69.7681C120.049 70.1375 119.548 70.345 119.026 70.345H100.173C99.6503 70.345 99.1493 70.1375 98.7799 69.7681C98.4105 69.3987 98.203 68.8977 98.203 68.3753C98.203 67.8529 98.4105 67.3519 98.7799 66.9825C99.1493 66.6131 99.6503 66.4056 100.173 66.4056ZM45.1435 35.4527C45.0897 35.1996 45.0862 34.9385 45.1332 34.6841C45.1803 34.4297 45.277 34.187 45.4179 33.97C45.5587 33.753 45.7409 33.5659 45.9541 33.4193C46.1673 33.2727 46.4073 33.1696 46.6603 33.1158L73.0835 27.4993C73.3365 27.4454 73.5977 27.4419 73.8521 27.4889C74.1065 27.536 74.3491 27.6327 74.5661 27.7736C74.7831 27.9144 74.9703 28.0967 75.1168 28.3098C75.2634 28.523 75.3666 28.763 75.4204 29.0161L81.0369 55.4392C81.0908 55.6922 81.0943 55.9534 81.0472 56.2078C81.0002 56.4622 80.9034 56.7048 80.7626 56.9218C80.6217 57.1388 80.4395 57.326 80.2263 57.4725C80.0131 57.6191 79.7732 57.7223 79.5201 57.7761L53.097 63.3926C52.9621 63.421 52.8247 63.4354 52.6869 63.4355C52.2358 63.4354 51.7983 63.2804 51.4477 62.9965C51.0971 62.7125 50.8546 62.3169 50.7607 61.8756L45.1435 35.4527ZM73.8498 40.5699L68.8953 41.6229L69.9481 46.5765L74.9025 45.5236L73.8498 40.5699ZM65.0414 42.4424L60.0876 43.4952L61.1404 48.4494L66.0942 47.3963L65.0414 42.4424ZM57.2863 49.2687L56.2334 44.3147L51.2788 45.3682L52.3321 50.3213L56.7611 49.3801L57.2863 49.2687ZM50.4599 41.5136L55.4138 40.4604L54.3607 35.5067L49.4069 36.5597L50.4599 41.5136ZM59.2679 39.641L64.2215 38.5882L63.1681 33.6337L58.2146 34.6866L59.2679 39.641ZM67.0224 32.8147L68.0757 37.7691L73.0292 36.7163L71.9763 31.7617L67.0224 32.8147ZM75.7217 49.3775L70.7672 50.4305L71.8199 55.3848L76.7743 54.332L75.7217 49.3775ZM67.9666 56.204L66.9136 51.2495L53.1514 54.1753L54.2044 59.1299L67.9666 56.204ZM53.5237 119.025V98.851C53.5236 98.4608 53.4077 98.0794 53.1906 97.7552C52.9734 97.431 52.6649 97.1786 52.3041 97.03C51.9433 96.8813 51.5465 96.8433 51.164 96.9205C50.7816 96.9977 50.4306 97.1868 50.1558 97.4638L30.1331 117.638C29.8593 117.914 29.6732 118.265 29.5985 118.647C29.5237 119.029 29.5636 119.424 29.7132 119.783C29.8627 120.142 30.1151 120.448 30.4387 120.664C30.7622 120.88 31.1424 120.995 31.5313 120.995H51.554C52.0764 120.995 52.5774 120.788 52.9468 120.418C53.3162 120.049 53.5237 119.548 53.5237 119.025ZM36.2611 117.056L49.5842 103.631V117.056H36.2611Z" fill="#F79838"/>
</svg>
