<svg width="130" height="142" viewBox="0 0 130 142" fill="none" xmlns="http://www.w3.org/2000/svg">
<path d="M2.2807 50.1754C1.67582 50.1754 1.09572 50.4157 0.668001 50.8434C0.240287 51.2711 0 51.8512 0 52.4561V61.5789C0 62.1837 0.240287 62.7638 0.668001 63.1916C1.09572 63.6193 1.67582 63.8596 2.2807 63.8596H7.25348C7.96869 66.9591 9.15474 69.9306 10.7703 72.6708L5.22936 78.2117C5.01756 78.4235 4.84956 78.6749 4.73493 78.9516C4.62031 79.2284 4.56132 79.5249 4.56132 79.8244C4.56132 80.124 4.62031 80.4205 4.73493 80.6973C4.84956 80.974 5.01756 81.2254 5.22936 81.4372L12.0715 88.2793C12.2832 88.4911 12.5347 88.6591 12.8114 88.7737C13.0881 88.8883 13.3847 88.9473 13.6842 88.9473C13.9837 88.9473 14.2803 88.8883 14.557 88.7737C14.8337 88.6591 15.0851 88.4911 15.2969 88.2793L20.8379 82.7383C23.578 84.3539 26.5496 85.54 29.6491 86.2552V93.5086C29.6491 94.1135 29.8894 94.6936 30.3171 95.1213C30.7448 95.549 31.3249 95.7893 31.9298 95.7893H39.9265C41.3873 101.455 44.1897 106.687 48.0973 111.042C52.0048 115.397 56.9028 118.748 62.3777 120.812C67.8527 122.876 73.7439 123.593 79.5541 122.902C85.3643 122.211 90.923 120.132 95.7608 116.841L118.32 139.399C118.955 140.035 119.709 140.539 120.539 140.883C121.369 141.227 122.259 141.403 123.158 141.403C124.056 141.403 124.946 141.227 125.776 140.883C126.606 140.539 127.361 140.035 127.996 139.399C128.631 138.764 129.135 138.01 129.479 137.18C129.823 136.349 130 135.46 130 134.561C130 133.663 129.823 132.773 129.479 131.943C129.135 131.113 128.631 130.358 127.996 129.723L105.437 107.164C110.438 99.819 112.582 90.8988 111.465 82.083C110.348 73.2672 106.047 65.1638 99.3715 59.2982H102.631C103.236 59.2982 103.816 59.0579 104.244 58.6302C104.672 58.2024 104.912 57.6223 104.912 57.0175V48.3109C105.362 47.1192 111.754 30.1406 111.754 29.6491C111.754 24.6338 110.34 20.6768 107.551 17.8875C104.762 15.0982 100.805 13.6842 95.7894 13.6842C90.7741 13.6842 86.8171 15.0985 84.0278 17.8875C81.2385 20.6765 79.8245 24.6338 79.8245 29.6491C79.8245 29.9225 86.6665 48.308 86.6665 48.308V52.0019C82.987 50.7892 79.1373 50.1726 75.2631 50.1754H65.7289C65.0137 47.0759 63.8276 44.1043 62.212 41.3642L67.753 35.8232C67.9648 35.6114 68.1328 35.36 68.2474 35.0833C68.3621 34.8066 68.4211 34.51 68.4211 34.2105C68.4211 33.911 68.3621 33.6144 68.2474 33.3377C68.1328 33.061 67.9648 32.8095 67.753 32.5977L60.9109 25.7556C60.6991 25.5438 60.4477 25.3758 60.171 25.2612C59.8943 25.1466 59.5977 25.0876 59.2982 25.0876C58.9987 25.0876 58.7021 25.1466 58.4254 25.2612C58.1486 25.3758 57.8972 25.5438 57.6854 25.7556L52.1445 31.2966C49.4043 29.681 46.4328 28.495 43.3333 27.7798V20.5263C43.3333 19.9214 43.093 19.3413 42.6653 18.9136C42.2376 18.4859 41.6575 18.2456 41.0526 18.2456H31.9298C31.3249 18.2456 30.7448 18.4859 30.3171 18.9136C29.8894 19.3413 29.6491 19.9214 29.6491 20.5263V27.7798C26.5496 28.495 23.578 29.681 20.8379 31.2966L15.2969 25.7556C15.0851 25.5438 14.8337 25.3758 14.557 25.2612C14.2803 25.1466 13.9837 25.0876 13.6842 25.0876C13.3847 25.0876 13.0881 25.1466 12.8114 25.2612C12.5347 25.3758 12.2832 25.5438 12.0715 25.7556L5.22936 32.5977C5.01756 32.8095 4.84956 33.061 4.73493 33.3377C4.62031 33.6144 4.56132 33.911 4.56132 34.2105C4.56132 34.51 4.62031 34.8066 4.73493 35.0833C4.84956 35.36 5.01756 35.6114 5.22936 35.8232L10.7703 41.3642C9.15474 44.1043 7.96869 47.0759 7.25348 50.1754H2.2807ZM124.77 132.949C124.987 133.159 125.16 133.411 125.279 133.689C125.398 133.967 125.46 134.266 125.462 134.568C125.464 134.871 125.406 135.17 125.292 135.45C125.177 135.73 125.008 135.984 124.794 136.198C124.58 136.411 124.326 136.58 124.046 136.695C123.767 136.81 123.467 136.868 123.165 136.865C122.862 136.863 122.564 136.801 122.286 136.682C122.008 136.563 121.756 136.391 121.545 136.174L99.3894 114.018C100.53 113.011 101.607 111.934 102.615 110.793L124.77 132.949ZM84.3896 29.2454C84.5247 21.9457 88.3585 18.2456 95.7894 18.2456C103.23 18.2456 107.063 21.9546 107.189 29.2719C106.548 31.0329 103.431 39.3144 101.055 45.614H90.5275L84.3896 29.2454ZM91.228 50.1754H100.351V54.7368H92.9122C92.3596 54.43 91.7981 54.137 91.228 53.8578V50.1754ZM107.193 86.6665C107.193 92.9807 105.321 99.1531 101.813 104.403C98.3057 109.654 93.3202 113.746 87.4871 116.164C81.654 118.581 75.2351 119.215 69.0419 117.984C62.8488 116.754 57.1594 113.715 52.6931 109.252C48.2267 104.789 45.184 99.1015 43.9495 92.9092C42.715 86.7169 43.3442 80.2975 45.7575 74.4627C48.1708 68.628 52.2599 63.6397 57.5079 60.1286C62.7558 56.6174 68.9269 54.7411 75.2411 54.7368H75.2631C83.7284 54.7463 91.8443 58.1134 97.8302 64.0994C103.816 70.0853 107.183 78.2012 107.193 86.6665ZM36.4912 68.421C34.2358 68.421 32.031 67.7522 30.1557 66.4991C28.2804 65.2461 26.8188 63.4651 25.9557 61.3814C25.0926 59.2977 24.8668 57.0048 25.3068 54.7928C25.7468 52.5807 26.8329 50.5488 28.4277 48.954C30.0225 47.3592 32.0544 46.2731 34.2665 45.8331C36.4785 45.3931 38.7714 45.6189 40.8551 46.482C42.9388 47.3451 44.7198 48.8067 45.9728 50.682C47.2259 52.5573 47.8947 54.7621 47.8947 57.0175C47.8913 60.0408 46.6888 62.9394 44.5509 65.0772C42.4131 67.215 39.5145 68.4176 36.4912 68.421ZM11.3724 52.8315C11.9991 49.0812 13.4252 45.5095 15.5538 42.3588C15.8607 41.9197 16.0032 41.3864 15.9563 40.8527C15.9094 40.3189 15.6761 39.8187 15.2972 39.4398L10.0673 34.2105L13.6842 30.5936L18.9136 35.8232C19.2925 36.2021 19.7927 36.4354 20.3264 36.4823C20.8601 36.5292 21.3934 36.3867 21.8326 36.0798C24.9832 33.9512 28.5549 32.5251 32.3052 31.8984C32.8376 31.8096 33.3212 31.5348 33.6701 31.1229C34.0189 30.7111 34.2104 30.1888 34.2105 29.6491V22.807H38.7719V29.6491C38.7719 30.1889 38.9633 30.7112 39.3122 31.1231C39.661 31.535 40.1447 31.8098 40.6771 31.8987C44.4275 32.5254 47.9991 33.9515 51.1498 36.0801C51.589 36.387 52.1222 36.5295 52.656 36.4826C53.1897 36.4357 53.6899 36.2023 54.0688 35.8235L59.2982 30.5936L62.9151 34.2105L57.6854 39.4398C57.3066 39.8187 57.0732 40.3189 57.0263 40.8527C56.9794 41.3864 57.1219 41.9197 57.4288 42.3588C59.5565 45.5081 60.9823 49.0781 61.6094 52.8267C58.2921 54.1714 55.1906 55.9965 52.4042 58.2433C52.4353 57.8377 52.4561 57.4294 52.4561 57.016C52.4575 53.6246 51.3794 50.3207 49.3777 47.5829C47.3761 44.845 44.555 42.8154 41.3229 41.788C38.0908 40.7606 34.6155 40.7887 31.4004 41.8682C28.1854 42.9477 25.3974 45.0227 23.4403 47.7925C21.4832 50.5623 20.4585 53.8832 20.5148 57.2742C20.5711 60.6652 21.7053 63.9503 23.7532 66.6536C25.8011 69.357 28.6564 71.3383 31.9055 72.3105C35.1547 73.2828 38.6289 73.1956 41.8252 72.0615C39.8065 76.6657 38.7667 81.6392 38.7719 86.6665C38.7721 88.1915 38.8673 89.7149 39.057 91.2279H34.2105V84.3858C34.2105 83.8461 34.019 83.3238 33.6702 82.9118C33.3213 82.4999 32.8377 82.2251 32.3052 82.1362C28.5549 81.5095 24.9832 80.0835 21.8326 77.9548C21.3934 77.6479 20.8601 77.5054 20.3264 77.5523C19.7927 77.5992 19.2925 77.8326 18.9136 78.2114L13.6842 83.4414L10.0673 79.8244L15.2969 74.5951C15.6758 74.2162 15.9091 73.716 15.956 73.1823C16.0029 72.6485 15.8604 72.1153 15.5535 71.6761C13.4249 68.5254 11.9988 64.9537 11.3721 61.2034C11.2833 60.671 11.0085 60.1874 10.5966 59.8386C10.1848 59.4897 9.66254 59.2982 9.1228 59.2982H4.5614V54.7368H9.1228C9.66259 54.7368 10.1849 54.5453 10.5968 54.1965C11.0087 53.8476 11.2836 53.364 11.3724 52.8315ZM74.0024 11.6444L78.5638 13.9251C78.8341 14.0576 79.0754 14.2423 79.2739 14.4686C79.4725 14.6948 79.6243 14.9581 79.7205 15.2433C79.8168 15.5285 79.8557 15.8299 79.8349 16.1302C79.8142 16.4305 79.7342 16.7237 79.5995 16.9929C79.4649 17.2621 79.2783 17.502 79.0505 17.6988C78.8227 17.8956 78.5583 18.0453 78.2723 18.1393C77.9864 18.2334 77.6847 18.2699 77.3846 18.2468C77.0844 18.2237 76.7919 18.1414 76.5237 18.0047L71.9623 15.724C71.4262 15.4506 71.0198 14.9765 70.8318 14.4048C70.6437 13.8331 70.6892 13.2103 70.9584 12.6721C71.2276 12.1338 71.6986 11.7238 72.2687 11.5313C72.8389 11.3388 73.4621 11.3794 74.0024 11.6444ZM95.7894 0C96.3942 0 96.9743 0.240287 97.402 0.668001C97.8298 1.09572 98.07 1.67582 98.07 2.2807V6.8421C98.07 7.44697 97.8298 8.02708 97.402 8.45479C96.9743 8.88251 96.3942 9.12279 95.7894 9.12279C95.1845 9.12279 94.6044 8.88251 94.1767 8.45479C93.7489 8.02708 93.5087 7.44697 93.5087 6.8421V2.2807C93.5087 1.67582 93.7489 1.09572 94.1767 0.668001C94.6044 0.240287 95.1845 0 95.7894 0V0ZM84.145 3.54135L86.4257 8.10275C86.5624 8.37091 86.6447 8.66348 86.6678 8.96359C86.6909 9.26371 86.6544 9.56543 86.5603 9.85136C86.4663 10.1373 86.3165 10.4018 86.1198 10.6296C85.923 10.8573 85.6831 11.0439 85.4139 11.1786C85.1447 11.3132 84.8515 11.3932 84.5512 11.414C84.2509 11.4347 83.9495 11.3959 83.6643 11.2996C83.3791 11.2033 83.1158 11.0515 82.8895 10.853C82.6633 10.6544 82.4786 10.4131 82.3461 10.1428L80.0654 5.58144C79.8004 5.04111 79.7597 4.41795 79.9522 3.84777C80.1447 3.27759 80.5548 2.8066 81.093 2.53744C81.6313 2.26828 82.2541 2.22276 82.8258 2.41081C83.3974 2.59885 83.8716 3.00522 84.145 3.54135ZM110.494 2.5216C111.035 2.79214 111.446 3.2665 111.637 3.84033C111.828 4.41416 111.784 5.04045 111.513 5.58144L109.233 10.1428C108.959 10.679 108.485 11.0853 107.913 11.2734C107.342 11.4614 106.719 11.4159 106.181 11.1468C105.642 10.8776 105.232 10.4066 105.04 9.83642C104.847 9.26624 104.888 8.64308 105.153 8.10275L107.434 3.54135C107.704 3.00038 108.179 2.58903 108.752 2.39779C109.326 2.20655 109.953 2.25108 110.494 2.5216ZM120.636 12.6641C120.907 13.2051 120.951 13.8314 120.76 14.4053C120.569 14.9791 120.157 15.4534 119.616 15.724L115.055 18.0047C114.515 18.2696 113.891 18.3103 113.321 18.1178C112.751 17.9253 112.28 17.5153 112.011 16.977C111.742 16.4388 111.696 15.8159 111.884 15.2443C112.072 14.6726 112.479 14.1984 113.015 13.9251L117.576 11.6444C118.117 11.3739 118.744 11.3293 119.317 11.5206C119.891 11.7118 120.366 12.1232 120.636 12.6641ZM47.8947 86.6665C47.8947 92.0795 49.4998 97.3709 52.5071 101.872C55.5144 106.372 59.7887 109.88 64.7896 111.952C69.7906 114.023 75.2934 114.565 80.6024 113.509C85.9113 112.453 90.7879 109.846 94.6154 106.019C98.443 102.191 101.05 97.3148 102.106 92.0059C103.162 86.6969 102.62 81.194 100.548 76.1931C98.4767 71.1922 94.9688 66.9178 90.4681 63.9106C85.9674 60.9033 80.676 59.2982 75.2631 59.2982C68.007 59.3063 61.0505 62.1924 55.9197 67.3232C50.7889 72.454 47.9028 79.4105 47.8947 86.6665ZM98.07 86.6665C98.07 91.1773 96.7324 95.5868 94.2264 99.3374C91.7203 103.088 88.1583 106.011 83.9909 107.737C79.8235 109.464 75.2378 109.915 70.8136 109.035C66.3895 108.155 62.3257 105.983 59.1361 102.794C55.9465 99.6039 53.7743 95.5401 52.8943 91.116C52.0143 86.6918 52.4659 82.1061 54.1922 77.9387C55.9184 73.7713 58.8416 70.2093 62.5922 67.7032C66.3428 65.1972 70.7523 63.8596 75.2631 63.8596C81.3097 63.8664 87.1068 66.2715 91.3824 70.5471C95.6581 74.8228 98.0632 80.6199 98.07 86.6665ZM75.2631 100.351C75.8679 100.351 76.448 100.591 76.8758 101.019C77.3035 101.446 77.5438 102.027 77.5438 102.631C77.5438 103.236 77.3035 103.816 76.8758 104.244C76.448 104.672 75.8679 104.912 75.2631 104.912C70.4257 104.907 65.788 102.983 62.3675 99.5621C58.9469 96.1416 57.0229 91.5039 57.0175 86.6665C57.0175 86.0617 57.2578 85.4816 57.6855 85.0538C58.1132 84.6261 58.6933 84.3858 59.2982 84.3858C59.903 84.3858 60.4832 84.6261 60.9109 85.0538C61.3386 85.4816 61.5789 86.0617 61.5789 86.6665C61.5829 90.2946 63.0259 93.7729 65.5913 96.3383C68.1567 98.9037 71.635 100.347 75.2631 100.351Z" fill="#F79838"/>
</svg>
