<svg width="130" height="130" viewBox="0 0 130 130" fill="none" xmlns="http://www.w3.org/2000/svg">
<path d="M8.125 14.5713H121.875C126.355 14.5713 130 18.2161 130 22.6963V99.8206C130 104.3 126.355 107.946 121.875 107.946H53.7347V113.395C53.7347 115.135 51.6803 116.071 50.3626 114.921L46.6611 111.669L42.9597 114.921C41.6538 116.066 39.5875 115.146 39.5875 113.395V107.946H8.125C3.64381 107.946 0 104.301 0 99.8206V22.6965C-0.000259399 18.2164 3.64381 14.5713 8.125 14.5713ZM55.3198 88.8064C55.3198 84.0248 51.43 80.135 46.6474 80.135C41.8806 80.135 38.0027 84.0248 38.0027 88.8064C38.0027 93.5742 41.8806 97.4521 46.6474 97.4521C51.4297 97.4521 55.3198 93.5742 55.3198 88.8064ZM46.6471 76.0725C53.6692 76.0725 59.3823 81.7854 59.3823 88.8064C59.3823 90.5469 59.0286 92.2059 58.3911 93.7177H105.795C106.653 88.6218 110.685 84.589 115.781 83.7313V38.7858C110.685 37.9279 106.653 33.8953 105.795 28.7992H24.2062C23.3472 33.8951 19.3144 37.9279 14.2185 38.7858V83.7313C19.3144 84.589 23.3472 88.6218 24.2062 93.7179H34.9291C34.2931 92.2062 33.9402 90.5466 33.9402 88.8066C33.9402 81.7853 39.6411 76.0725 46.6471 76.0725ZM45.3202 107.439C46.0873 106.765 47.2365 106.766 48.0022 107.439L49.6724 108.907V101.137C48.7007 101.375 47.6912 101.515 46.6474 101.515C45.6135 101.515 44.6131 101.377 43.6503 101.143V108.907L45.3202 107.439ZM4.06224 99.8208C4.06224 102.061 5.88529 103.883 8.12474 103.883H39.5873V99.3656C38.8936 98.9002 38.2474 98.3697 37.6591 97.7807H22.3435C21.2207 97.7807 20.3122 96.8712 20.3122 95.7494C20.3122 91.2695 16.6684 87.6244 12.1872 87.6244C11.0647 87.6244 10.156 86.7149 10.156 85.5932V36.9242C10.156 35.8024 11.0645 34.8929 12.1872 34.8929C16.6684 34.8929 20.3122 31.2481 20.3122 26.7679C20.3122 25.6462 21.2207 24.7367 22.3435 24.7367H107.657C108.778 24.7367 109.688 25.6462 109.688 26.7679C109.688 31.2479 113.333 34.8929 117.813 34.8929C118.935 34.8929 119.844 35.8024 119.844 36.9242V85.5929C119.844 86.7147 118.935 87.6242 117.813 87.6242C113.333 87.6242 109.688 91.269 109.688 95.7492C109.688 96.8709 108.778 97.7804 107.657 97.7804H55.6552C55.0692 98.3662 54.4256 98.8946 53.7349 99.3582V103.883H121.875C124.115 103.883 125.938 102.061 125.938 99.8206V22.6965C125.938 20.4561 124.115 18.634 121.875 18.634H8.12449C5.88503 18.634 4.06199 20.4561 4.06199 22.6965V99.8208H4.06224ZM44.6299 39.4881C44.6299 40.6099 45.5383 41.5194 46.6611 41.5194H83.3389C84.4606 41.5194 85.3701 40.6099 85.3701 39.4881C85.3701 38.3664 84.4606 37.4569 83.3389 37.4569H46.6614C45.5383 37.4566 44.6299 38.3661 44.6299 39.4881ZM44.6299 56.3955C44.6299 57.5172 45.5383 58.4267 46.6611 58.4267H83.3389C84.4606 58.4267 85.3701 57.5172 85.3701 56.3955C85.3701 55.2737 84.4606 54.3642 83.3389 54.3642H46.6614C45.5383 54.3642 44.6299 55.274 44.6299 56.3955ZM96.3348 56.3955C96.3348 57.5172 97.2443 58.4267 98.3661 58.4267H103.206C104.328 58.4267 105.238 57.5172 105.238 56.3955C105.238 55.2737 104.328 54.3642 103.206 54.3642H98.3661C97.2443 54.3642 96.3348 55.274 96.3348 56.3955ZM33.6642 56.3955C33.6642 55.2737 32.7557 54.3642 31.6329 54.3642H26.795C25.6722 54.3642 24.7637 55.2737 24.7637 56.3955C24.7637 57.5172 25.6722 58.4267 26.795 58.4267H31.6329C32.7557 58.427 33.6642 57.5172 33.6642 56.3955ZM44.6299 67.2492C44.6299 68.371 45.5383 69.2805 46.6611 69.2805H83.3389C84.4606 69.2805 85.3701 68.371 85.3701 67.2492C85.3701 66.1275 84.4606 65.218 83.3389 65.218H46.6614C45.5383 65.218 44.6299 66.1272 44.6299 67.2492ZM96.3348 67.2492C96.3348 68.371 97.2443 69.2805 98.3661 69.2805H103.206C104.328 69.2805 105.238 68.371 105.238 67.2492C105.238 66.1275 104.328 65.218 103.206 65.218H98.3661C97.2443 65.218 96.3348 66.1272 96.3348 67.2492ZM33.6642 67.2492C33.6642 66.1275 32.7557 65.218 31.6329 65.218H26.795C25.6722 65.218 24.7637 66.1275 24.7637 67.2492C24.7637 68.371 25.6722 69.2805 26.795 69.2805H31.6329C32.7557 69.2805 33.6642 68.371 33.6642 67.2492ZM59.9714 78.1037C59.9714 79.2255 60.8799 80.135 62.0026 80.135H83.3386C84.4604 80.135 85.3699 79.2255 85.3699 78.1037C85.3699 76.9819 84.4604 76.0725 83.3386 76.0725H62.0026C60.8799 76.0725 59.9714 76.9819 59.9714 78.1037ZM96.3348 78.1037C96.3348 79.2255 97.2443 80.135 98.3661 80.135H103.206C104.328 80.135 105.238 79.2255 105.238 78.1037C105.238 76.9819 104.328 76.0725 103.206 76.0725H98.3661C97.2443 76.0725 96.3348 76.9819 96.3348 78.1037Z" fill="#F79838"/>
</svg>
