<svg width="130" height="130" viewBox="0 0 130 130" fill="none" xmlns="http://www.w3.org/2000/svg">
<path d="M22.3438 40.625C21.8051 40.625 21.2884 40.839 20.9075 41.2199C20.5266 41.6009 20.3126 42.1175 20.3126 42.6562V62.9688C20.3126 63.5075 20.5266 64.0241 20.9075 64.4051C21.2884 64.786 21.8051 65 22.3438 65H30.4688C31.0075 65 31.5242 64.786 31.9051 64.4051C32.2861 64.0241 32.5001 63.5075 32.5001 62.9688V42.6562C32.5001 42.1175 32.2861 41.6009 31.9051 41.2199C31.5242 40.839 31.0075 40.625 30.4688 40.625H22.3438ZM28.4376 60.9375H24.3751V44.6875H28.4376V60.9375ZM6.09383 42.6562C5.5551 42.6562 5.03845 42.8703 4.65751 43.2512C4.27658 43.6321 4.06258 44.1488 4.06258 44.6875V62.9688C4.06258 63.5075 4.27658 64.0241 4.65751 64.4051C5.03845 64.786 5.5551 65 6.09383 65H14.2188C14.7575 65 15.2742 64.786 15.6551 64.4051C16.0361 64.0241 16.2501 63.5075 16.2501 62.9688V44.6875C16.2501 44.1488 16.0361 43.6321 15.6551 43.2512C15.2742 42.8703 14.7575 42.6562 14.2188 42.6562H6.09383ZM12.1876 60.9375H8.12507V46.7188H12.1876V60.9375ZM26.4063 101.562H6.09383C5.5551 101.562 5.03845 101.777 4.65751 102.157C4.27658 102.538 4.06258 103.055 4.06258 103.594C4.0693 109.518 6.42552 115.197 10.6143 119.386C14.8031 123.575 20.4825 125.931 26.4063 125.938C26.945 125.938 27.4617 125.723 27.8426 125.343C28.2236 124.962 28.4376 124.445 28.4376 123.906V103.594C28.4376 103.055 28.2236 102.538 27.8426 102.157C27.4617 101.777 26.945 101.562 26.4063 101.562ZM24.3751 121.763C20.256 121.296 16.4171 119.446 13.4858 116.514C10.5545 113.583 8.70415 109.744 8.23705 105.625H24.3751V121.763ZM123.906 85.3125C124.445 85.3125 124.962 85.0985 125.343 84.7176C125.724 84.3366 125.938 83.82 125.938 83.2812V6.09375C125.938 5.55503 125.724 5.03837 125.343 4.65744C124.962 4.27651 124.445 4.0625 123.906 4.0625H71.0938C70.5551 4.0625 70.0385 4.27651 69.6575 4.65744C69.2766 5.03837 69.0626 5.55503 69.0626 6.09375V45.2629C67.687 45.5248 66.33 45.8761 65.0001 46.3145V24.375C65.0001 23.8363 64.7861 23.3196 64.4051 22.9387C64.0242 22.5578 63.5075 22.3438 62.9688 22.3438H54.8438C54.3051 22.3438 53.7884 22.5578 53.4075 22.9387C53.0266 23.3196 52.8126 23.8363 52.8126 24.375V53.6087C51.3148 55.0288 49.9546 56.5873 48.7501 58.2634V38.5938C48.7501 38.055 48.5361 37.5384 48.1551 37.1574C47.7742 36.7765 47.2575 36.5625 46.7188 36.5625H38.5938C38.0551 36.5625 37.5384 36.7765 37.1575 37.1574C36.7766 37.5384 36.5626 38.055 36.5626 38.5938V62.9688C36.5626 63.5075 36.7766 64.0241 37.1575 64.4051C37.5384 64.786 38.0551 65 38.5938 65H45.0298C43.7732 68.0931 43.0045 71.3626 42.7513 74.6916C39.3625 73.3509 35.6973 72.8595 32.0751 73.2601C28.4529 73.6607 24.9836 74.9412 21.9698 76.99C18.9559 79.0388 16.4889 81.7937 14.7839 85.0146C13.0789 88.2354 12.1875 91.8244 12.1876 95.4688C12.1876 96.0075 12.4016 96.5241 12.7825 96.9051C13.1634 97.286 13.6801 97.5 14.2188 97.5H32.5001V115.781C32.5001 116.32 32.7141 116.837 33.095 117.218C33.4759 117.598 33.9926 117.812 34.5313 117.812C39.1195 117.801 43.5938 116.383 47.3504 113.748C51.107 111.114 53.965 107.391 55.5388 103.081C61.1507 107.344 67.9984 109.663 75.0458 109.687C82.0932 109.712 88.9567 107.44 94.5979 103.216L115.535 124.153C116.101 124.719 116.772 125.168 117.512 125.474C118.251 125.78 119.044 125.938 119.844 125.938C120.644 125.938 121.437 125.78 122.176 125.474C122.915 125.168 123.587 124.719 124.153 124.153C124.719 123.587 125.168 122.915 125.474 122.176C125.78 121.436 125.938 120.644 125.938 119.844C125.938 119.043 125.78 118.251 125.474 117.512C125.168 116.772 124.719 116.101 124.153 115.535L102.829 94.2114C104.535 91.4525 105.816 88.4526 106.628 85.3125H123.906ZM44.6876 60.9375H40.6251V40.625H44.6876V60.9375ZM73.1251 8.125H121.875V81.25H107.402C107.571 79.9024 107.656 78.5456 107.656 77.1875H115.781C116.32 77.1875 116.837 76.9735 117.218 76.5926C117.599 76.2116 117.813 75.695 117.813 75.1562C117.813 74.6175 117.599 74.1009 117.218 73.7199C116.837 73.339 116.32 73.125 115.781 73.125H107.399C107.228 71.7557 106.969 70.3987 106.624 69.0625H115.781C116.32 69.0625 116.837 68.8485 117.218 68.4676C117.599 68.0866 117.813 67.57 117.813 67.0312C117.813 66.4925 117.599 65.9759 117.218 65.5949C116.837 65.214 116.32 65 115.781 65H105.281C104.712 63.6011 104.047 62.2436 103.289 60.9375H115.781C116.32 60.9375 116.837 60.7235 117.218 60.3426C117.599 59.9616 117.813 59.445 117.813 58.9062C117.813 58.3675 117.599 57.8509 117.218 57.4699C116.837 57.089 116.32 56.875 115.781 56.875H100.506C97.8516 53.5687 94.5807 50.8092 90.8746 48.75H93.4376C93.9763 48.75 94.493 48.536 94.8739 48.1551C95.2548 47.7741 95.4688 47.2575 95.4688 46.7188C95.4688 46.18 95.2548 45.6634 94.8739 45.2824C94.493 44.9015 93.9763 44.6875 93.4376 44.6875H75.1563C74.4741 44.6875 73.7972 44.7111 73.1251 44.7528V8.125ZM56.8751 26.4062H60.9376V47.9675C59.5282 48.6562 58.1704 49.4461 56.8751 50.3308V26.4062ZM16.362 93.4375C16.7451 90.0078 18.0959 86.7577 20.2567 84.0668L29.6274 93.4375H16.362ZM36.5626 113.637V95.4688C36.5629 95.202 36.5105 94.9377 36.4084 94.6912C36.3063 94.4447 36.1565 94.2208 35.9677 94.0324L23.1292 81.1939C25.854 79.012 29.1471 77.6569 32.6184 77.2891C36.0898 76.9214 39.5937 77.5564 42.7152 79.119C43.1847 87.0624 46.5604 94.5555 52.1989 100.17C51.2442 103.724 49.2425 106.909 46.4539 109.311C43.6654 111.712 40.219 113.219 36.5626 113.637ZM121.28 118.408C121.473 118.595 121.627 118.819 121.733 119.067C121.839 119.315 121.894 119.581 121.896 119.85C121.898 120.119 121.847 120.386 121.744 120.635C121.642 120.884 121.492 121.111 121.301 121.301C121.111 121.491 120.884 121.642 120.635 121.744C120.386 121.846 120.119 121.898 119.85 121.896C119.581 121.894 119.315 121.838 119.067 121.733C118.819 121.627 118.595 121.473 118.408 121.28L97.7009 100.572C98.6773 99.6303 99.5943 98.6286 100.447 97.5731L121.28 118.408ZM75.1563 105.625C69.5319 105.625 64.0338 103.957 59.3573 100.832C54.6808 97.7077 51.0359 93.2663 48.8835 88.0701C46.7311 82.8738 46.168 77.156 47.2652 71.6396C48.3625 66.1233 51.0709 61.0562 55.048 57.0792C59.025 53.1021 64.0921 50.3937 69.6084 49.2964C75.1248 48.1992 80.8426 48.7623 86.0389 50.9147C91.2352 53.067 95.6765 56.7119 98.8012 61.3885C101.926 66.065 103.594 71.5631 103.594 77.1875C103.585 84.727 100.586 91.9552 95.2552 97.2864C89.924 102.618 82.6958 105.616 75.1563 105.625ZM75.1563 52.8125C70.3354 52.8125 65.6227 54.2421 61.6143 56.9204C57.6059 59.5988 54.4816 63.4056 52.6368 67.8596C50.7919 72.3135 50.3092 77.2145 51.2497 81.9428C52.1902 86.6711 54.5117 91.0143 57.9206 94.4232C61.3295 97.8321 65.6727 100.154 70.401 101.094C75.1293 102.035 80.0303 101.552 84.4842 99.7071C88.9382 97.8622 92.745 94.738 95.4234 90.7295C98.1018 86.7211 99.5313 82.0084 99.5313 77.1875C99.5241 70.7251 96.9537 64.5294 92.384 59.9598C87.8144 55.3902 81.6188 52.8198 75.1563 52.8125ZM75.1563 97.5C71.1389 97.5 67.2117 96.3087 63.8713 94.0767C60.5309 91.8448 57.9274 88.6724 56.39 84.9608C54.8526 81.2491 54.4504 77.165 55.2341 73.2247C56.0179 69.2845 57.9525 65.6651 60.7932 62.8244C63.634 59.9836 67.2533 58.0491 71.1936 57.2653C75.1338 56.4815 79.218 56.8838 82.9296 58.4212C86.6412 59.9586 89.8136 62.5621 92.0456 65.9025C94.2775 69.2429 95.4688 73.1701 95.4688 77.1875C95.4627 82.5728 93.3207 87.7358 89.5127 91.5438C85.7047 95.3519 80.5417 97.4939 75.1563 97.5ZM77.1876 91.4062C77.1876 91.945 76.9736 92.4616 76.5926 92.8426C76.2117 93.2235 75.695 93.4375 75.1563 93.4375C70.848 93.4327 66.7176 91.7191 63.6712 88.6726C60.6248 85.6262 58.9112 81.4958 58.9063 77.1875C58.9063 76.6488 59.1203 76.1321 59.5013 75.7512C59.8822 75.3703 60.3989 75.1562 60.9376 75.1562C61.4763 75.1562 61.993 75.3703 62.3739 75.7512C62.7548 76.1321 62.9688 76.6488 62.9688 77.1875C62.9725 80.4187 64.2577 83.5165 66.5425 85.8014C68.8273 88.0862 71.9251 89.3714 75.1563 89.375C75.695 89.375 76.2117 89.589 76.5926 89.9699C76.9736 90.3509 77.1876 90.8675 77.1876 91.4062ZM77.1876 14.2188C77.1876 13.68 77.4016 13.1634 77.7825 12.7824C78.1635 12.4015 78.6801 12.1875 79.2188 12.1875H115.781C116.32 12.1875 116.837 12.4015 117.218 12.7824C117.599 13.1634 117.813 13.68 117.813 14.2188C117.813 14.7575 117.599 15.2741 117.218 15.6551C116.837 16.036 116.32 16.25 115.781 16.25H79.2188C78.6801 16.25 78.1635 16.036 77.7825 15.6551C77.4016 15.2741 77.1876 14.7575 77.1876 14.2188ZM77.1876 22.3438C77.1876 21.805 77.4016 21.2884 77.7825 20.9074C78.1635 20.5265 78.6801 20.3125 79.2188 20.3125H115.781C116.32 20.3125 116.837 20.5265 117.218 20.9074C117.599 21.2884 117.813 21.805 117.813 22.3438C117.813 22.8825 117.599 23.3991 117.218 23.7801C116.837 24.161 116.32 24.375 115.781 24.375H79.2188C78.6801 24.375 78.1635 24.161 77.7825 23.7801C77.4016 23.3991 77.1876 22.8825 77.1876 22.3438ZM77.1876 30.4688C77.1876 29.93 77.4016 29.4134 77.7825 29.0324C78.1635 28.6515 78.6801 28.4375 79.2188 28.4375H93.4376C93.9763 28.4375 94.493 28.6515 94.8739 29.0324C95.2548 29.4134 95.4688 29.93 95.4688 30.4688C95.4688 31.0075 95.2548 31.5241 94.8739 31.9051C94.493 32.286 93.9763 32.5 93.4376 32.5H79.2188C78.6801 32.5 78.1635 32.286 77.7825 31.9051C77.4016 31.5241 77.1876 31.0075 77.1876 30.4688ZM77.1876 38.5938C77.1876 38.055 77.4016 37.5384 77.7825 37.1574C78.1635 36.7765 78.6801 36.5625 79.2188 36.5625H93.4376C93.9763 36.5625 94.493 36.7765 94.8739 37.1574C95.2548 37.5384 95.4688 38.055 95.4688 38.5938C95.4688 39.1325 95.2548 39.6491 94.8739 40.0301C94.493 40.411 93.9763 40.625 93.4376 40.625H79.2188C78.6801 40.625 78.1635 40.411 77.7825 40.0301C77.4016 39.6491 77.1876 39.1325 77.1876 38.5938ZM115.781 28.4375H101.563C101.024 28.4375 100.507 28.6515 100.126 29.0324C99.7453 29.4134 99.5313 29.93 99.5313 30.4688V50.7812C99.5313 51.32 99.7453 51.8366 100.126 52.2176C100.507 52.5985 101.024 52.8125 101.563 52.8125H115.781C116.32 52.8125 116.837 52.5985 117.218 52.2176C117.599 51.8366 117.813 51.32 117.813 50.7812V30.4688C117.813 29.93 117.599 29.4134 117.218 29.0324C116.837 28.6515 116.32 28.4375 115.781 28.4375ZM113.75 48.75H103.594V32.5H113.75V48.75ZM6.09383 38.5938C6.36063 38.5941 6.62486 38.5417 6.87136 38.4396C7.11785 38.3375 7.34175 38.1877 7.53017 37.9988L11.5927 33.9363C12.3636 34.3049 13.2035 34.507 14.0577 34.5297C14.9119 34.5524 15.7613 34.3952 16.5508 34.0681C17.3402 33.7411 18.052 33.2516 18.6399 32.6315C19.2278 32.0114 19.6787 31.2745 19.9632 30.4688H26.7557C27.0301 31.2505 27.4611 31.968 28.0222 32.5775C28.5834 33.187 29.2629 33.6757 30.0193 34.0137C30.7757 34.3517 31.5931 34.5319 32.4215 34.5433C33.2499 34.5547 34.072 34.3971 34.8374 34.08C35.6028 33.763 36.2955 33.2932 36.8732 32.6993C37.4509 32.1055 37.9015 31.4001 38.1973 30.6262C38.4932 29.8524 38.6282 29.0263 38.5939 28.1986C38.5597 27.3708 38.3571 26.5587 37.9984 25.8119L42.0609 21.7494C42.8319 22.1179 43.6719 22.3202 44.5262 22.3429C45.3804 22.3656 46.23 22.2083 47.0195 21.8812C47.809 21.5541 48.5208 21.0645 49.1087 20.4443C49.6967 19.8241 50.1475 19.0871 50.4319 18.2812H54.8438C55.1484 18.2813 55.4491 18.2129 55.7237 18.0811C55.9982 17.9492 56.2396 17.7573 56.43 17.5195L60.9376 11.8843V12.1875C60.9376 12.7262 61.1516 13.2429 61.5325 13.6238C61.9134 14.0047 62.4301 14.2188 62.9688 14.2188C63.5075 14.2188 64.0242 14.0047 64.4051 13.6238C64.7861 13.2429 65.0001 12.7262 65.0001 12.1875V6.09375C65.0001 5.55503 64.7861 5.03837 64.4051 4.65744C64.0242 4.27651 63.5075 4.0625 62.9688 4.0625H56.8751C56.3364 4.0625 55.8197 4.27651 55.4388 4.65744C55.0578 5.03837 54.8438 5.55503 54.8438 6.09375C54.8438 6.63247 55.0578 7.14913 55.4388 7.53006C55.8197 7.91099 56.3364 8.125 56.8751 8.125H58.7426L53.8676 14.2188H50.4319C50.1575 13.437 49.7265 12.7195 49.1654 12.11C48.6043 11.5005 47.9247 11.0118 47.1683 10.6738C46.4119 10.3358 45.5945 10.1556 44.7661 10.1442C43.9377 10.1328 43.1157 10.2904 42.3503 10.6075C41.5849 10.9245 40.8921 11.3943 40.3144 11.9882C39.7367 12.582 39.2862 13.2874 38.9903 14.0613C38.6944 14.8351 38.5595 15.6612 38.5937 16.4889C38.6279 17.3167 38.8305 18.1288 39.1892 18.8756L35.1267 22.9381C34.3557 22.5696 33.5158 22.3673 32.6615 22.3446C31.8072 22.3219 30.9577 22.4792 30.1682 22.8063C29.3787 23.1334 28.6668 23.623 28.0789 24.2432C27.491 24.8634 27.0401 25.6004 26.7557 26.4062H19.9632C19.6888 25.6245 19.2578 24.907 18.6967 24.2975C18.1355 23.688 17.456 23.1993 16.6996 22.8613C15.9432 22.5233 15.1258 22.3431 14.2974 22.3317C13.469 22.3203 12.6469 22.4779 11.8815 22.795C11.1161 23.112 10.4234 23.5818 9.84567 24.1757C9.26796 24.7695 8.81741 25.4749 8.52156 26.2488C8.2257 27.0226 8.09075 27.8487 8.12495 28.6764C8.15916 29.5042 8.3618 30.3163 8.72049 31.0631L4.65798 35.1256C4.37375 35.4097 4.18014 35.7716 4.10164 36.1657C4.02314 36.5597 4.06328 36.9682 4.21699 37.3395C4.37069 37.7108 4.63105 38.0281 4.96513 38.2513C5.29922 38.4746 5.69201 38.5938 6.09383 38.5938ZM44.6876 14.2188C45.0893 14.2188 45.482 14.3379 45.8161 14.5611C46.1501 14.7843 46.4105 15.1015 46.5642 15.4727C46.7179 15.8438 46.7582 16.2523 46.6798 16.6463C46.6014 17.0403 46.408 17.4022 46.1239 17.6863C45.8398 17.9704 45.4779 18.1638 45.0839 18.2422C44.6898 18.3206 44.2814 18.2804 43.9102 18.1266C43.5391 17.9729 43.2218 17.7125 42.9986 17.3785C42.7755 17.0445 42.6563 16.6517 42.6563 16.25C42.6569 15.7115 42.8711 15.1952 43.2519 14.8144C43.6327 14.4336 44.149 14.2194 44.6876 14.2188ZM32.5001 26.4062C32.9018 26.4062 33.2945 26.5254 33.6286 26.7486C33.9626 26.9718 34.223 27.289 34.3767 27.6602C34.5304 28.0313 34.5707 28.4398 34.4923 28.8338C34.4139 29.2278 34.2205 29.5897 33.9364 29.8738C33.6523 30.1579 33.2904 30.3513 32.8964 30.4297C32.5023 30.5081 32.0939 30.4679 31.7227 30.3141C31.3516 30.1604 31.0343 29.9 30.8112 29.566C30.588 29.232 30.4688 28.8392 30.4688 28.4375C30.4694 27.899 30.6836 27.3827 31.0644 27.0019C31.4452 26.6211 31.9615 26.4069 32.5001 26.4062ZM14.2188 26.4062C14.6206 26.4062 15.0133 26.5254 15.3473 26.7486C15.6814 26.9718 15.9417 27.289 16.0955 27.6602C16.2492 28.0313 16.2894 28.4398 16.211 28.8338C16.1327 29.2278 15.9392 29.5897 15.6551 29.8738C15.3711 30.1579 15.0091 30.3513 14.6151 30.4297C14.2211 30.5081 13.8127 30.4679 13.4415 30.3141C13.0703 30.1604 12.7531 29.9 12.5299 29.566C12.3067 29.232 12.1876 28.8392 12.1876 28.4375C12.1882 27.899 12.4024 27.3827 12.7832 27.0019C13.164 26.6211 13.6803 26.4069 14.2188 26.4062Z" fill="#F79838"/>
</svg>
